<svg width="966" height="232" viewBox="0 0 966 232" fill="none" xmlns="http://www.w3.org/2000/svg">
<g clip-path="url(#clip0_205_345)">
<rect width="966" height="232" rx="77" fill="#F16722"/>
<mask id="mask0_205_345" style="mask-type:alpha" maskUnits="userSpaceOnUse" x="0" y="0" width="967" height="232">
<rect x="0.5" y="0.5" width="965.5" height="231" rx="76.5" fill="#77BF43" stroke="black"/>
</mask>
<g mask="url(#mask0_205_345)">
<path d="M640.658 166.195C639.86 163.782 638.74 161.609 637.337 159.797C642.595 162.341 648.821 162.959 654.852 160.964C667.155 156.894 673.854 143.568 669.783 131.261C666.55 121.489 657.564 115.359 647.881 115.216C656.572 109.53 660.694 98.5287 657.302 88.2732C653.231 75.9667 639.907 69.2645 627.603 73.3344C621.331 75.4093 616.54 79.939 613.836 85.5185C613.717 84.7547 613.438 83.9101 613.158 83.0656C609.127 70.8797 595.924 64.1375 583.621 68.2075C571.317 72.2775 564.619 85.6034 568.69 97.9099C568.969 98.7545 569.409 99.6798 569.689 100.524C564.791 98.6643 559.368 98.4505 553.94 100.246C541.637 104.316 534.938 117.642 539.009 129.949C542.042 139.118 550.185 145.125 559.143 145.91C552.42 151.881 549.506 161.68 552.499 170.729C556.57 183.035 569.895 189.738 582.198 185.668C587.746 183.832 592.254 180.065 594.997 175.41C595.113 177.38 595.47 179.269 596.069 181.079C600.14 193.385 613.464 200.088 625.767 196.018C638.151 191.787 644.729 178.501 640.658 166.195ZM628.395 152.181C628.435 152.302 628.595 152.383 628.595 152.383C628.435 152.302 628.274 152.221 628.113 152.14L628.395 152.181Z" fill="#5B3275"/>
<path d="M321.382 275.87C323.368 270.297 324.419 264.704 324.435 259.371C330.451 271.564 341.002 281.605 354.931 286.568C383.347 296.693 414.711 281.803 424.839 253.38C432.882 230.808 425.147 206.697 407.571 192.583C431.665 194.573 454.972 180.267 463.412 156.58C473.54 128.157 458.659 96.7884 430.243 86.6632C415.756 81.5013 400.478 82.9664 387.531 89.3445C388.405 87.7718 389.1 85.8212 389.795 83.8705C399.824 55.7254 385.221 24.4565 356.805 14.3312C328.389 4.20599 297.025 19.0959 286.897 47.5197C286.202 49.4703 285.686 51.7989 284.991 53.7495C278.658 43.3277 269.004 35.1771 256.467 30.7101C228.051 20.5849 196.687 35.4748 186.559 63.8985C179.013 85.077 185.374 107.756 200.702 122.011C179.813 123.362 160.445 137.187 152.998 158.087C142.87 186.511 157.751 217.879 186.167 228.004C198.982 232.57 212.65 232.102 224.345 227.476C221.741 231.258 219.694 235.24 218.205 239.42C208.077 267.844 222.958 299.212 251.374 309.337C280.168 319.283 311.254 304.294 321.382 275.87ZM318.907 232.592C318.808 232.871 318.987 233.249 318.987 233.249C318.808 232.871 318.628 232.493 318.449 232.115L318.907 232.592Z" fill="#5B3275"/>
<path d="M746.298 107.738C751.677 108.639 756.922 108.688 761.764 107.841C751.672 115.272 744.267 126.471 742.015 139.914C737.422 167.339 756.007 193.394 783.44 197.988C805.224 201.636 825.854 190.717 835.82 172.485C837.91 194.671 854.663 213.509 877.523 217.337C904.955 221.931 931.015 203.353 935.608 175.928C937.949 161.947 934.149 148.319 926.267 137.601C927.835 138.14 929.718 138.456 931.601 138.771C958.764 143.32 984.779 125.011 989.371 97.5859C993.964 70.161 975.379 44.1063 947.947 39.5123C946.064 39.197 943.868 39.1055 941.985 38.7903C950.418 31.3574 956.254 21.2782 958.28 9.17894C962.873 -18.246 944.288 -44.3006 916.855 -48.8947C896.416 -52.3177 876.863 -42.8772 866.406 -26.6617C861.802 -45.3995 846.123 -60.7402 825.952 -64.1182C798.52 -68.7123 772.46 -50.1343 767.867 -22.7094C765.796 -10.3413 768.432 1.98587 774.521 11.8509C770.667 10.0998 766.723 8.88645 762.689 8.21085C735.257 3.61677 709.197 22.1948 704.604 49.6197C700.235 77.3585 718.865 103.144 746.298 107.738ZM785.172 98.4931C784.903 98.448 784.589 98.6719 784.589 98.6719C784.903 98.448 785.217 98.2242 785.531 98.0004L785.172 98.4931Z" fill="#5B3275"/>
<path d="M91.7498 135.12C91.1669 132.723 90.2536 130.532 89.039 128.669C93.927 131.544 99.9037 132.63 105.897 131.174C118.123 128.202 125.652 115.832 122.679 103.603C120.319 93.8916 112.104 87.2539 102.745 86.3544C111.602 81.5348 116.456 71.2125 113.979 61.0216C111.006 48.7924 98.6385 41.2595 86.4126 44.2315C80.1798 45.7466 75.1875 49.7536 72.1323 54.9406C72.0773 54.1921 71.8733 53.3528 71.6693 52.5136C68.7257 40.4043 56.4781 32.8423 44.2522 35.8142C32.0264 38.7862 24.4969 51.1557 27.4696 63.3849C27.6736 64.2241 28.0266 65.1541 28.2306 65.9934C23.6373 63.8085 18.4057 63.1756 13.012 64.4867C0.786099 67.4586 -6.7434 79.8282 -3.77066 92.0573C-1.55568 101.169 5.85233 107.622 14.4594 109.085C7.48442 114.336 3.89434 123.589 6.08017 132.581C9.05291 144.811 21.4204 152.344 33.6463 149.372C39.1599 148.031 43.8184 144.74 46.838 140.451C46.7957 142.366 46.9931 144.222 47.4303 146.021C50.403 158.25 62.7705 165.783 74.9964 162.811C87.3129 159.69 94.7226 147.35 91.7498 135.12ZM80.9832 120.596C81.0124 120.715 81.1614 120.806 81.1614 120.806C81.0124 120.715 80.8634 120.625 80.7144 120.534L80.9832 120.596Z" fill="#5B3275"/>
</g>
</g>
<defs>
<clipPath id="clip0_205_345">
<rect width="966" height="232" rx="77" fill="white"/>
</clipPath>
</defs>
</svg>
