<svg width="966" height="232" viewBox="0 0 966 232" fill="none" xmlns="http://www.w3.org/2000/svg">
<g clip-path="url(#clip0_205_408)">
<rect width="966" height="232" rx="77" fill="#3E95D1"/>
<mask id="mask0_205_408" style="mask-type:alpha" maskUnits="userSpaceOnUse" x="0" y="0" width="967" height="232">
<rect width="966.5" height="232" rx="77" fill="#77BF43"/>
</mask>
<g mask="url(#mask0_205_408)">
<path fill-rule="evenodd" clip-rule="evenodd" d="M87.007 -12.1052C94.6428 -30.6417 115.86 -39.4785 134.396 -31.8427L341.981 53.6683C352.09 57.8324 359.314 66.0356 362.555 75.6404C367.108 84.7137 367.85 95.6361 363.68 105.759L278.169 313.344C270.534 331.881 249.317 340.718 230.78 333.082L213.999 326.169C195.462 318.533 186.625 297.316 194.261 278.78L236.116 177.173L-25.1802 286.003C-43.6868 293.711 -64.9379 284.957 -72.6459 266.45L-79.6242 249.696C-87.3321 231.189 -78.5781 209.938 -60.0715 202.23L200.703 93.6178L99.8317 52.0656C81.2951 44.4298 72.4583 23.213 80.0941 4.67649L87.007 -12.1052Z" fill="#572D71"/>
<path fill-rule="evenodd" clip-rule="evenodd" d="M402.824 189.014C394.7 185.442 391.01 175.961 394.582 167.837L434.581 76.8599C436.529 72.4298 440.234 69.3181 444.518 67.9836C448.581 66.063 453.422 65.8477 457.859 67.7983L548.836 107.797C556.96 111.369 560.65 120.85 557.079 128.974L553.845 136.329C550.273 144.453 540.792 148.143 532.668 144.571L488.138 124.993L533.585 241.759C536.804 250.029 532.709 259.343 524.439 262.561L516.952 265.476C508.682 268.694 499.368 264.6 496.149 256.329L450.793 139.796L431.356 184.005C427.784 192.129 418.303 195.819 410.179 192.248L402.824 189.014Z" fill="#572D71"/>
<path fill-rule="evenodd" clip-rule="evenodd" d="M623.709 126.184C614.453 112.486 618.055 93.8774 631.753 84.6215L785.159 -19.0327C792.631 -24.0809 801.563 -25.3045 809.641 -23.1511C817.95 -22.1414 825.792 -17.6721 830.846 -10.1924L934.5 143.214C943.756 156.912 940.155 175.521 926.456 184.777L914.054 193.156C900.356 202.412 881.747 198.811 872.492 185.112L821.756 110.025L777.402 339.195C774.261 355.426 758.556 366.037 742.325 362.896L727.63 360.052C711.399 356.91 700.788 341.206 703.929 324.975L748.194 96.2626L673.651 146.63C659.953 155.886 641.345 152.285 632.089 138.586L623.709 126.184Z" fill="#572D71"/>
</g>
</g>
<defs>
<clipPath id="clip0_205_408">
<rect width="966" height="232" rx="77" fill="white"/>
</clipPath>
</defs>
</svg>
