<svg width="83" height="83" viewBox="0 0 83 83" fill="none" xmlns="http://www.w3.org/2000/svg">
<circle cx="41.5" cy="41.5" r="41.5" transform="matrix(1 0 0 -1 0 83)" fill="#653C7E"/>
<path d="M39.8787 63.1213C41.0503 64.2929 42.9497 64.2929 44.1213 63.1213L63.2132 44.0294C64.3848 42.8579 64.3848 40.9584 63.2132 39.7868C62.0416 38.6152 60.1421 38.6152 58.9706 39.7868L42 56.7574L25.0294 39.7868C23.8579 38.6152 21.9584 38.6152 20.7868 39.7868C19.6152 40.9584 19.6152 42.8579 20.7868 44.0294L39.8787 63.1213ZM39 22L39 61L45 61L45 22L39 22Z" fill="white"/>
</svg>
