<svg width="584" height="56" viewBox="0 0 584 56" fill="none" xmlns="http://www.w3.org/2000/svg">
<path d="M2.08955 54.6437C11.6177 54.444 28.3674 53.1044 39.505 52.4327C72.7927 50.425 108.899 49.2176 142.916 48.4711C199.301 47.2339 255.804 48.384 312.203 48.4125C332.736 48.423 394.337 48.4542 373.803 48.4438" stroke="#FFCA63" stroke-width="2.41149" stroke-linecap="round"/>
<path d="M19.1018 11.5551V19.6666H10.017V11.5551H2.31114V16.0164H4.74458V31.8337H10.017V24.1279H19.1018V27.3724V31.8337H26.8077V27.3724H24.3743V11.5551H19.1018ZM28.4119 21.6944C28.4119 27.6969 32.2243 32.2393 38.2268 32.2393C41.3497 32.2393 43.702 31.0226 45.2026 28.9542V31.8337H52.9085V27.3724H50.4751V11.5551H45.2026V14.5158C43.702 12.4068 41.3902 11.1496 38.2268 11.1496C32.2243 11.1496 28.4119 15.692 28.4119 21.6944ZM33.6844 21.6944C33.6844 18.3282 36.0367 15.6109 39.4435 15.6109C42.8097 15.6109 45.2026 18.3282 45.2026 21.6944V21.9378C45.0809 25.1824 42.7286 27.778 39.4435 27.778C36.0367 27.778 33.6844 25.0607 33.6844 21.6944ZM56.9461 31.8337H84.9306V27.3724H82.4972V11.5551H77.2248V27.3724H72.3579V11.5551H67.0854V27.3724H62.2186V11.5551H54.5127V16.0164H56.9461V31.8337ZM94.2604 11.5551H86.5545V16.0164H88.9879V31.8337H94.2604V29.8059L103.751 19.6666V27.3724V31.8337H111.457V27.3724H109.023V11.5551H103.751V13.583L94.2604 23.7629V11.5551ZM149.333 11.5551H127.27V16.0164H129.704V31.8337H134.976V16.0164H144.061V27.3724V31.8337H151.767V27.3724H149.333V11.5551ZM158.643 21.6944C158.643 18.3282 160.996 15.6109 164.402 15.6109C167.769 15.6109 170.162 18.3282 170.162 21.6944C170.162 25.0607 167.769 27.778 164.402 27.778C160.996 27.778 158.643 25.0607 158.643 21.6944ZM153.371 21.6944C153.371 27.6969 158.4 32.2393 164.402 32.2393C170.405 32.2393 175.475 27.6969 175.434 21.6944C175.393 15.692 170.405 11.1496 164.402 11.1496C158.4 11.1496 153.371 15.692 153.371 21.6944ZM178.88 16.0164H182.043L181.962 19.5855C181.8 21.8567 180.948 24.6551 179.853 27.3724H177.095V37.1062H182.368V31.8337H196.36V37.1062H201.632V27.3724H198.104V16.0164H198.145V11.5551H178.88V16.0164ZM192.832 27.3724H185.085C185.896 25.9124 186.829 23.4384 186.91 19.6666L186.991 16.0164H192.832V27.3724ZM207.914 21.6944C207.914 18.3282 210.266 15.6109 213.673 15.6109C217.039 15.6109 219.432 18.3282 219.432 21.6944C219.432 25.0607 217.039 27.778 213.673 27.778C210.266 27.778 207.914 25.0607 207.914 21.6944ZM202.642 21.6944C202.642 27.6969 207.671 32.2393 213.673 32.2393C219.676 32.2393 224.745 27.6969 224.705 21.6944C224.664 15.692 219.676 11.1496 213.673 11.1496C207.671 11.1496 202.642 15.692 202.642 21.6944ZM248.429 11.5551H226.366V16.0164H228.799V31.8337H234.072V16.0164H243.157V27.3724V31.8337H250.863V27.3724H248.429V11.5551ZM274.124 21.6944C274.084 15.692 269.501 11.1496 263.498 11.1496C257.496 11.1496 252.467 15.692 252.467 21.6944C252.467 27.6969 257.496 32.2393 263.498 32.2393C268.933 32.2393 271.204 29.9681 273.232 27.6158L269.095 24.8985C268.406 26.0746 266.946 27.778 263.498 27.778C260.578 27.778 258.429 25.7907 257.861 23.1139H274.124V21.6944ZM263.498 15.6109C266.135 15.6109 267.919 17.3143 268.568 19.6666H258.023C258.753 17.3143 260.822 15.6109 263.498 15.6109ZM296.642 11.5551H291.37V19.1799C290.113 20.356 288.653 20.9238 287.152 20.9238C284.394 20.9238 283.137 19.7882 283.137 17.1926V11.5551H275.35V16.0164H277.864V17.1926C277.824 23.7629 281.068 25.5474 285.246 25.5474C287.76 25.5474 289.951 24.8985 291.37 23.9251V27.3319V31.7932H299.076V27.3319H296.642V11.5551ZM317.498 11.5551V19.6666H308.414V11.5551H300.708V16.0164H303.141V31.8337H308.414V24.1279H317.498V27.3724V31.8337H325.204V27.3724H322.771V11.5551H317.498ZM329.282 27.3724V31.8337H337.799C342.666 31.8337 346.316 28.9947 346.316 24.5334C346.316 20.0721 342.666 17.2331 337.799 17.2331H334.555V11.5551H329.282V27.3724ZM348.344 31.8337H356.05V27.3724H353.617V11.5551H348.344V31.8337ZM334.555 21.6944H337.799C339.746 21.6944 341.044 22.5867 341.044 24.5334C341.044 26.4802 339.746 27.3724 337.799 27.3724H334.555V21.6944ZM379.32 21.6944C379.279 15.692 374.696 11.1496 368.694 11.1496C362.691 11.1496 357.662 15.692 357.662 21.6944C357.662 27.6969 362.691 32.2393 368.694 32.2393C374.128 32.2393 376.399 29.9681 378.427 27.6158L374.29 24.8985C373.601 26.0746 372.141 27.778 368.694 27.778C365.773 27.778 363.624 25.7907 363.056 23.1139H379.32V21.6944ZM368.694 15.6109C371.33 15.6109 373.114 17.3143 373.763 19.6666H363.218C363.948 17.3143 366.017 15.6109 368.694 15.6109Z" fill="#653C7E"/>
</svg>
