<svg width="700" height="239" viewBox="0 0 700 239" fill="none" xmlns="http://www.w3.org/2000/svg">
<path d="M411.926 227.855C500.577 227.855 766.531 227.855 677.879 227.855C623.41 227.855 568.94 227.855 514.471 227.855C495.86 227.855 475.955 227.175 457.85 230.751C451.685 231.968 443.912 230.805 437.624 230.805C436.677 230.805 431.181 231.661 434.058 231.789C451.143 232.548 468.481 231.789 485.576 231.789C543.747 231.789 601.646 236.706 659.805 236.706C672.346 236.706 709.971 236.706 697.429 236.706" stroke="#FFCA63" stroke-width="3.5023"/>
<path d="M88.0119 66.6427H98.1101V60.6978C94.6083 53.1242 86.7904 48.0751 77.8323 48.0751C65.7797 48.0751 55.6815 57.196 55.6815 69.2487C55.6815 81.3013 65.7797 90.4223 77.8323 90.4223C86.7904 90.4223 94.6898 85.4546 98.1101 77.881L88.0934 75.0307C86.2203 78.8582 82.4742 81.4642 77.8323 81.4642C70.9916 81.4642 66.2683 76.0079 66.2683 69.2487C66.2683 62.4894 70.9916 57.0331 77.8323 57.0331C82.3928 57.0331 86.0575 59.5577 88.0119 63.3852V66.6427ZM101.331 57.8475H115.175V89.6079H132.277V80.6498H125.762V48.8894H115.175H101.331V57.8475ZM125.762 57.8475H139.606V48.8894H125.762V57.8475ZM151.841 69.2487C151.841 62.4894 156.564 57.0331 163.405 57.0331C170.164 57.0331 174.969 62.4894 174.969 69.2487C174.969 76.0079 170.164 81.4642 163.405 81.4642C156.564 81.4642 151.841 76.0079 151.841 69.2487ZM141.254 69.2487C141.254 81.3013 151.352 90.4223 163.405 90.4223C175.457 90.4223 185.637 81.3013 185.556 69.2487C185.474 57.196 175.457 48.0751 163.405 48.0751C151.352 48.0751 141.254 57.196 141.254 69.2487ZM204.364 48.8894H188.891V57.8475H193.778V89.6079H204.364V85.5361L223.421 65.1768V80.6498V89.6079H238.894V80.6498H234.007V48.8894H223.421V52.9613L204.364 73.402V48.8894ZM242.175 57.8475H256.02V89.6079H273.121V80.6498H266.606V48.8894H256.02H242.175V57.8475ZM266.606 57.8475H280.451V48.8894H266.606V57.8475Z" fill="#FFCA63"/>
<path d="M303.519 84.0259C310.103 81.1106 315.921 78.0719 320.867 74.9498M303.519 84.0259L320.867 74.9498M303.519 84.0259C299.607 85.7582 295.424 87.4469 290.993 89.0837C261.595 99.9411 221.252 108.513 176.353 112.349C83.7159 120.263 6.76874 105.02 4.48629 78.3036C2.20383 51.5869 74.507 29.8079 167.144 21.8938C174.504 21.265 209.237 20.2339 216.37 19.8916M320.867 74.9498C333.711 66.8431 340.682 58.1744 339.953 49.644C338.134 28.3451 289.78 12.2671 222.935 11.4722C219.989 11.4372 190.297 12.6637 187.285 12.6805" stroke="#FFCA63" stroke-width="3.33896"/>
<path d="M402.041 49.1114H386.567V58.0696H391.454V89.8306H402.041V64.5847H402.855L411.895 89.8306H422.156L431.196 64.5847H432.01V80.8724V89.8306H447.483V80.8724H442.597V49.1114H432.01H427.124L417.025 78.4292L406.927 49.1114H402.041ZM494.236 69.471C494.154 57.4181 484.952 48.297 472.899 48.297C460.846 48.297 450.748 57.4181 450.748 69.471C450.748 81.5239 460.846 90.6449 472.899 90.6449C483.812 90.6449 488.372 86.0844 492.444 81.361L484.137 75.9046C482.753 78.2663 479.821 81.6867 472.899 81.6867C467.035 81.6867 462.719 77.6963 461.579 72.3213H494.236V69.471ZM472.899 57.2553C478.192 57.2553 481.776 60.6757 483.079 65.3991H461.905C463.371 60.6757 467.524 57.2553 472.899 57.2553ZM531.227 49.1114V65.3991H512.984V49.1114H497.511V58.0696H502.397V89.8306H512.984V74.3573H531.227V80.8724V89.8306H546.7V80.8724H541.814V49.1114H531.227ZM595.364 80.8724H589.663V49.1114H568.489C558.716 49.1114 551.387 54.8121 551.387 63.7703C551.387 69.2267 554.075 73.4615 558.391 75.9861L549.921 89.8306H562.381L569.303 78.4292H579.076V89.8306H595.364V80.8724ZM579.076 69.471H568.489C564.58 69.471 561.974 67.6794 561.974 63.7703C561.974 59.8613 564.58 58.0696 568.489 58.0696H579.076V69.471ZM598.593 58.0696H612.438V89.8306H629.54V80.8724H623.025V49.1114H612.438H598.593V58.0696ZM623.025 58.0696H636.869V49.1114H623.025V58.0696ZM643.485 89.8306H663.03C672.803 89.8306 680.132 84.1299 680.132 75.1717C680.132 66.2135 672.803 60.5128 663.03 60.5128H654.072V49.1114H643.485V89.8306ZM654.072 69.471H663.03C666.939 69.471 669.545 71.2626 669.545 75.1717C669.545 79.0807 666.939 80.8724 663.03 80.8724H654.072V69.471Z" fill="white"/>
<path d="M71.102 158.436H55.6288V167.394H60.5151V199.155H71.102V195.083L90.1586 174.724V190.197V199.155H105.632V190.197H100.746V158.436H90.1586V162.508L71.102 182.949V158.436ZM141.245 176.19H151.343V170.245C147.841 162.671 140.023 157.622 131.065 157.622C119.012 157.622 108.914 166.743 108.914 178.796C108.914 190.849 119.012 199.97 131.065 199.97C140.023 199.97 147.923 195.002 151.343 187.428L141.326 184.578C139.453 188.405 135.707 191.011 131.065 191.011C124.224 191.011 119.501 185.555 119.501 178.796C119.501 172.036 124.224 166.58 131.065 166.58C135.625 166.58 139.29 169.105 141.245 172.932V176.19ZM154.564 167.394H168.408V199.155H185.51V190.197H178.995V158.436H168.408H154.564V167.394ZM178.995 167.394H192.84V158.436H178.995V167.394ZM205.074 178.796C205.074 172.036 209.798 166.58 216.639 166.58C223.398 166.58 228.203 172.036 228.203 178.796C228.203 185.555 223.398 191.011 216.639 191.011C209.798 191.011 205.074 185.555 205.074 178.796ZM194.487 178.796C194.487 190.849 204.586 199.97 216.639 199.97C228.691 199.97 238.871 190.849 238.79 178.796C238.708 166.743 228.691 157.622 216.639 157.622C204.586 157.622 194.487 166.743 194.487 178.796ZM272.665 157.215C265.987 157.215 260.938 159.821 257.599 164.055V158.436H242.126V167.394H247.012V219.515H257.599V193.536C260.938 197.852 265.987 200.377 272.665 200.377C284.718 200.377 292.21 191.093 292.21 178.796C292.21 166.499 284.718 157.215 272.665 157.215ZM269.407 191.093C262.567 191.093 257.599 185.637 257.599 178.796V178.307C257.843 171.711 262.729 166.499 269.407 166.499C276.248 166.499 281.216 171.955 281.216 178.796C281.216 185.637 276.248 191.093 269.407 191.093ZM310.963 158.436H295.49V167.394H300.376V199.155H310.963V195.083L330.02 174.724V190.197V199.155H345.493V190.197H340.607V158.436H330.02V162.508L310.963 182.949V158.436ZM364.248 158.436H348.775V167.394H353.661V199.155H364.248V195.083L383.305 174.724V190.197V199.155H398.778V190.197H393.892V158.436H383.305V162.508L364.248 182.949V158.436ZM468.319 158.436H457.732V173.095H451.868L442.747 158.436H431.346L443.561 177.981L430.531 199.155H441.932L452.438 182.053H457.732V199.155H468.319V182.053H473.612L484.118 199.155H495.519L482.489 177.981L494.705 158.436H483.303L474.101 173.095H468.319V158.436ZM514.241 158.436H498.767V167.394H503.654V199.155H514.241V195.083L533.297 174.724V190.197V199.155H548.771V190.197H543.884V158.436H533.297V162.508L514.241 182.949V158.436ZM571.109 191.826C566.63 191.826 563.128 189.138 561.418 184.822L552.46 187.428C555.88 195.002 562.639 199.97 572.412 199.97C582.673 199.97 590.491 195.165 590.491 186.858C590.491 183.193 587.967 178.796 582.347 177.9C586.989 176.923 588.455 173.095 588.455 169.837C588.455 162.264 580.556 157.622 571.353 157.622C562.802 157.622 556.939 161.694 553.763 167.802V174.724H562.721V169.919C564.349 167.639 567.037 165.766 570.457 165.766C575.588 165.766 577.868 167.883 577.868 170.652C577.868 172.932 574.936 175.375 570.539 175.375H567.037V182.053H571.923C576.891 182.053 579.904 183.682 579.904 186.532C579.904 190.197 576.239 191.826 571.109 191.826ZM627.839 158.436V174.724H609.597V158.436H594.123V167.394H599.01V199.155H609.597V183.682H627.839V190.197V199.155H643.312V190.197H638.426V158.436H627.839ZM662.007 158.436H646.533V167.394H651.42V199.155H662.007V195.083L681.063 174.724V190.197V199.155H696.537V190.197H691.65V158.436H681.063V162.508L662.007 182.949V158.436Z" fill="white"/>
</svg>
