<svg width="1034" height="231" viewBox="0 0 1034 231" fill="none" xmlns="http://www.w3.org/2000/svg">
<rect x="0.5" y="0.35083" width="1033" height="230.135" rx="77" fill="#77BF43"/>
<mask id="mask0_1_230" style="mask-type:alpha" maskUnits="userSpaceOnUse" x="0" y="0" width="1034" height="231">
<rect x="0.5" y="0.35083" width="1033" height="230.135" rx="77" fill="#77BF43"/>
</mask>
<g mask="url(#mask0_1_230)">
<path d="M172.843 162.12C176.142 191.537 125.013 267.222 125.013 267.222C125.013 267.222 58.1232 202.318 54.8251 172.901C51.527 143.483 75.2727 117.223 107.863 114.246C140.452 111.269 169.545 132.703 172.843 162.12Z" fill="#572D71"/>
<ellipse cx="111.911" cy="165.775" rx="27.7997" ry="25.0935" fill="#77BF43"/>
<path d="M609.072 200.589C591.072 235.343 478.346 288.971 478.346 288.971C478.346 288.971 451.643 176.506 469.643 141.751C487.642 106.997 533.446 91.9944 571.949 108.242C610.451 124.489 627.071 165.834 609.072 200.589Z" fill="#572D71"/>
<ellipse cx="35.1821" cy="33.5174" rx="35.1821" ry="33.5174" transform="matrix(0.880336 0.47435 -0.551606 0.834105 526.009 123.435)" fill="#77BF43"/>
<path d="M913.355 94.1086C908.555 145.619 793.759 260.859 793.759 260.859C793.759 260.859 701.904 129.928 706.705 78.4178C711.505 26.9078 761.656 -11.3367 818.721 -7.00384C875.786 -2.67094 918.155 42.5986 913.355 94.1086Z" fill="#572D71"/>
<ellipse cx="48.4489" cy="44.0379" rx="48.4489" ry="44.0379" transform="matrix(0.986065 0.166363 -0.202764 0.979228 768.498 31.5385)" fill="#77BF43"/>
<path d="M654.607 19.9896C656.806 39.6012 622.72 90.0578 622.72 90.0578C622.72 90.0578 578.127 46.7884 575.928 27.1768C573.73 7.56521 589.56 -9.94204 611.287 -11.9267C633.013 -13.9114 652.408 0.378026 654.607 19.9896Z" fill="#572D71"/>
<ellipse cx="613.985" cy="22.4257" rx="18.5331" ry="16.729" fill="#77BF43"/>
<path d="M421.582 11.0085C436.342 75.7571 341.732 254.602 341.732 254.602C341.732 254.602 176.58 124.005 161.82 59.2568C147.06 -5.49184 193.244 -68.7817 264.975 -82.1051C336.707 -95.4285 406.822 -53.7401 421.582 11.0085Z" fill="#572D71"/>
<ellipse cx="62.0928" cy="56.1684" rx="62.0928" ry="56.1684" transform="matrix(0.995752 -0.0920734 0.112762 0.993622 218.823 -18.4257)" fill="#77BF43"/>
</g>
</svg>
