<svg width="183" height="61" viewBox="0 0 183 61" fill="none" xmlns="http://www.w3.org/2000/svg">
<path d="M180.391 30.2668C180.579 25.4479 173.398 21.939 169.944 20.1511C163.703 16.9211 157.247 14.0347 150.154 13.7575C147.513 13.6542 143.655 12.7985 141.081 13.5163C138.042 14.3637 136.346 18.9487 135.542 21.6163C134.127 26.3086 133.971 31.5553 135.196 36.2772C136.651 41.8877 141.764 45.9655 146.179 49.3658C149.806 52.1587 154.841 55.6244 159.572 56.0203C162.318 56.2501 165.241 57.4784 167.417 55.0213C169.671 52.4752 169.295 47.5866 168.279 44.5814C165.974 37.7671 158.338 31.904 152.358 28.5465C145.821 24.8765 139.473 22.0618 132.257 19.9551C126.604 18.3047 119.931 18.196 114.056 17.9663C106.124 17.6562 101.325 21.0556 101.243 29.1596C101.211 32.2854 103.012 34.4437 104.395 37.1167C106.529 41.2417 109.093 44.9083 111.981 48.5398C115.179 52.5612 119.649 56.5047 124.512 58.3396C126.593 59.1248 126.179 57.8094 126.249 56.0233C126.453 50.799 124.043 47.3372 120.872 43.2674C112.975 33.1298 100.619 26.1715 88.1572 23.3686C82.3038 22.052 76.2435 21.5972 70.2685 21.3636C66.9462 21.2337 62.359 20.1775 59.149 21.1844C54.9233 22.5099 55.8144 28.0691 55.6595 32.0325C55.3845 39.0665 63.4365 47.141 69.8107 49.0484C71.7197 49.6197 73.1138 50.0858 75.1316 50.1647C77.7902 50.2687 73.6615 42.9903 73.1396 42.3097C63.9023 30.2627 52.2158 21.6249 37.3031 18.0313C28.4223 15.8912 19.4028 15.7987 10.326 15.4439" stroke="#FFCA63" stroke-width="4.61018" stroke-linecap="round"/>
<path d="M22.3408 2.69727C21.5926 3.2414 20.5082 3.36623 19.6838 3.89294C17.5892 5.23114 15.3863 6.38913 13.2773 7.70138C10.4928 9.43397 7.91787 11.5828 5.33569 13.5912C5.18932 13.705 2.90021 15.2889 3.00339 15.3921C3.22555 15.6142 3.91778 15.6446 4.21382 15.8349C5.15113 16.4375 6.14154 16.9786 7.04801 17.6358C11.7056 21.0125 17.059 23.4438 21.8094 26.6107" stroke="#FFCA63" stroke-width="4.61018" stroke-linecap="round"/>
</svg>
