<svg width="316" height="58" viewBox="0 0 316 58" fill="none" xmlns="http://www.w3.org/2000/svg">
<path d="M4.002 56.1871C11.6888 56.0257 25.2041 54.8484 34.1904 54.2635C61.0485 52.5153 90.1784 51.4959 117.622 50.8889C163.11 49.8828 208.688 51.0345 254.184 51.1724C270.749 51.2226 320.441 51.3732 303.877 51.323" stroke="white" stroke-width="2.41149" stroke-linecap="round"/>
<path d="M17.6018 10.7214V18.8328H8.51702V10.7214H0.811144V15.1827H3.24458V31H8.51702V23.2941H17.6018V26.5387V31H25.3077V26.5387H22.8743V10.7214H17.6018ZM26.9119 20.8607C26.9119 26.8632 30.7243 31.4056 36.7268 31.4056C39.8497 31.4056 42.202 30.1889 43.7026 28.1204V31H51.4085V26.5387H48.9751V10.7214H43.7026V13.6821C42.202 11.5731 39.8902 10.3158 36.7268 10.3158C30.7243 10.3158 26.9119 14.8582 26.9119 20.8607ZM32.1844 20.8607C32.1844 17.4944 34.5367 14.7771 37.9435 14.7771C41.3097 14.7771 43.7026 17.4944 43.7026 20.8607V21.104C43.5809 24.3486 41.2286 26.9443 37.9435 26.9443C34.5367 26.9443 32.1844 24.2269 32.1844 20.8607ZM55.4461 31H83.4306V26.5387H80.9972V10.7214H75.7248V26.5387H70.8579V10.7214H65.5854V26.5387H60.7186V10.7214H53.0127V15.1827H55.4461V31ZM92.7604 10.7214H85.0545V15.1827H87.4879V31H92.7604V28.9721L102.251 18.8328V26.5387V31H109.957V26.5387H107.523V10.7214H102.251V12.7493L92.7604 22.9291V10.7214ZM133.476 10.7214H125.77V15.1827H128.204V31H133.476V28.9721L142.966 18.8328V26.5387V31H150.672V26.5387H148.239V10.7214H142.966V12.7493L133.476 22.9291V10.7214ZM168.408 19.5629H173.437V16.6022C171.693 12.8304 167.799 10.3158 163.338 10.3158C157.336 10.3158 152.307 14.8582 152.307 20.8607C152.307 26.8632 157.336 31.4056 163.338 31.4056C167.799 31.4056 171.734 28.9316 173.437 25.1598L168.448 23.7403C167.516 25.6464 165.65 26.9443 163.338 26.9443C159.931 26.9443 157.579 24.2269 157.579 20.8607C157.579 17.4944 159.931 14.7771 163.338 14.7771C165.609 14.7771 167.434 16.0344 168.408 17.9406V19.5629ZM175.041 15.1827H181.936V31H190.453V26.5387H187.208V10.7214H181.936H175.041V15.1827ZM187.208 15.1827H194.103V10.7214H187.208V15.1827ZM200.196 20.8607C200.196 17.4944 202.548 14.7771 205.955 14.7771C209.321 14.7771 211.714 17.4944 211.714 20.8607C211.714 24.2269 209.321 26.9443 205.955 26.9443C202.548 26.9443 200.196 24.2269 200.196 20.8607ZM194.923 20.8607C194.923 26.8632 199.952 31.4056 205.955 31.4056C211.957 31.4056 217.027 26.8632 216.986 20.8607C216.946 14.8582 211.957 10.3158 205.955 10.3158C199.952 10.3158 194.923 14.8582 194.923 20.8607ZM233.857 10.113C230.531 10.113 228.016 11.4109 226.354 13.5198V10.7214H218.648V15.1827H221.081V41.1393H226.354V28.2016C228.016 30.3511 230.531 31.6084 233.857 31.6084C239.859 31.6084 243.59 26.9848 243.59 20.8607C243.59 14.7366 239.859 10.113 233.857 10.113ZM232.234 26.9848C228.828 26.9848 226.354 24.2675 226.354 20.8607V20.6174C226.475 17.3322 228.909 14.7366 232.234 14.7366C235.641 14.7366 238.115 17.4539 238.115 20.8607C238.115 24.2675 235.641 26.9848 232.234 26.9848ZM252.93 10.7214H245.224V15.1827H247.657V31H252.93V28.9721L262.42 18.8328V26.5387V31H270.126V26.5387H267.692V10.7214H262.42V12.7493L252.93 22.9291V10.7214ZM279.466 10.7214H271.76V15.1827H274.194V31H279.466V28.9721L288.957 18.8328V26.5387V31H296.662V26.5387H294.229V10.7214H288.957V12.7493L279.466 22.9291V10.7214Z" fill="white"/>
</svg>
