<svg width="190" height="84" viewBox="0 0 190 84" fill="none" xmlns="http://www.w3.org/2000/svg">
<path d="M14.28 18H1.36V25.48H5.44V52H14.28V30.92H14.96L22.508 52H31.076L38.624 30.92H39.304V44.52V52H52.224V44.52H48.144V18H39.304H35.224L26.792 42.48L18.36 18H14.28ZM91.2618 35C91.1938 24.936 83.5098 17.32 73.4458 17.32C63.3818 17.32 54.9498 24.936 54.9498 35C54.9498 45.064 63.3818 52.68 73.4458 52.68C82.5578 52.68 86.3658 48.872 89.7658 44.928L82.8298 40.372C81.6738 42.344 79.2258 45.2 73.4458 45.2C68.5498 45.2 64.9458 41.868 63.9938 37.38H91.2618V35ZM73.4458 24.8C77.8658 24.8 80.8578 27.656 81.9458 31.6H64.2658C65.4898 27.656 68.9578 24.8 73.4458 24.8ZM119.497 16.98C113.921 16.98 109.705 19.156 106.917 22.692V18H93.9967V25.48H98.0767V69H106.917V47.308C109.705 50.912 113.921 53.02 119.497 53.02C129.561 53.02 135.817 45.268 135.817 35C135.817 24.732 129.561 16.98 119.497 16.98ZM116.777 45.268C111.065 45.268 106.917 40.712 106.917 35V34.592C107.121 29.084 111.201 24.732 116.777 24.732C122.489 24.732 126.637 29.288 126.637 35C126.637 40.712 122.489 45.268 116.777 45.268ZM173.575 18H164.735V30.784C162.627 32.756 160.179 33.708 157.663 33.708C153.039 33.708 150.931 31.804 150.931 27.452V18H137.875V25.48H142.091V27.452C142.023 38.468 147.463 41.46 154.467 41.46C158.683 41.46 162.355 40.372 164.735 38.74V44.452V51.932H177.655V44.452H173.575V18Z" fill="white"/>
<path d="M10.718 78.0232C65.5988 78.0232 230.241 78.0232 175.36 78.0232C141.64 78.0232 107.92 78.0232 74.2 78.0232C62.6789 78.0232 50.3564 77.7177 39.1479 79.3242C35.3316 79.8713 30.5198 79.3488 26.6265 79.3488C26.0407 79.3488 22.6381 79.7332 24.4191 79.7907C34.9958 80.1318 45.7292 79.7907 56.3124 79.7907C92.3237 79.7907 128.167 82 164.171 82C171.935 82 195.227 82 187.463 82" stroke="#FFCA63" stroke-width="3.5023"/>
</svg>
