<svg width="589" height="75" viewBox="0 0 589 75" fill="none" xmlns="http://www.w3.org/2000/svg">
<path d="M35.356 33.637H43.788V28.673C40.864 22.349 34.336 18.133 26.856 18.133C16.792 18.133 8.36 25.749 8.36 35.813C8.36 45.877 16.792 53.493 26.856 53.493C34.336 53.493 40.932 49.345 43.788 43.021L35.424 40.641C33.86 43.837 30.732 46.013 26.856 46.013C21.144 46.013 17.2 41.457 17.2 35.813C17.2 30.169 21.144 25.613 26.856 25.613C30.664 25.613 33.724 27.721 35.356 30.917V33.637ZM46.4772 26.293H58.0372V52.813H72.3172V45.333H66.8772V18.813H58.0372H46.4772V26.293ZM66.8772 26.293H78.4372V18.813H66.8772V26.293ZM88.6531 35.813C88.6531 30.169 92.5971 25.613 98.3091 25.613C103.953 25.613 107.965 30.169 107.965 35.813C107.965 41.457 103.953 46.013 98.3091 46.013C92.5971 46.013 88.6531 41.457 88.6531 35.813ZM79.8131 35.813C79.8131 45.877 88.2451 53.493 98.3091 53.493C108.373 53.493 116.873 45.877 116.805 35.813C116.737 25.749 108.373 18.133 98.3091 18.133C88.2451 18.133 79.8131 25.749 79.8131 35.813ZM132.51 18.813H119.59V26.293H123.67V52.813H132.51V49.413L148.422 32.413V45.333V52.813H161.342V45.333H157.262V18.813H148.422V22.213L132.51 39.281V18.813ZM164.083 26.293H175.643V52.813H189.923V45.333H184.483V18.813H175.643H164.083V26.293ZM184.483 26.293H196.043V18.813H184.483V26.293ZM258.184 18.813H221.192V26.293H225.272V52.813H234.112V26.293H249.344V45.333V52.813H262.264V45.333H258.184V18.813ZM273.794 35.813C273.794 30.169 277.738 25.613 283.45 25.613C289.094 25.613 293.106 30.169 293.106 35.813C293.106 41.457 289.094 46.013 283.45 46.013C277.738 46.013 273.794 41.457 273.794 35.813ZM264.954 35.813C264.954 45.877 273.386 53.493 283.45 53.493C293.514 53.493 302.014 45.877 301.946 35.813C301.878 25.749 293.514 18.133 283.45 18.133C273.386 18.133 264.954 25.749 264.954 35.813ZM317.651 18.813H304.731V26.293H308.811V52.813H317.651V31.733H318.331L325.879 52.813H334.447L341.995 31.733H342.675V45.333V52.813H355.595V45.333H351.515V18.813H342.675H338.595L330.163 43.293L321.731 18.813H317.651ZM367.161 35.813C367.161 30.169 371.105 25.613 376.817 25.613C382.461 25.613 386.473 30.169 386.473 35.813C386.473 41.457 382.461 46.013 376.817 46.013C371.105 46.013 367.161 41.457 367.161 35.813ZM358.321 35.813C358.321 45.877 366.753 53.493 376.817 53.493C386.881 53.493 395.381 45.877 395.313 35.813C395.245 25.749 386.881 18.133 376.817 18.133C366.753 18.133 358.321 25.749 358.321 35.813ZM398.098 26.293H402.858V52.813H411.698V26.293H423.258V35.065H431.418V18.813H398.098V26.293ZM436.149 35.813C436.149 45.877 442.541 53.493 452.605 53.493C457.841 53.493 461.785 51.453 464.301 47.985V52.813H477.221V45.333H473.141V18.813H464.301V23.777C461.785 20.241 457.909 18.133 452.605 18.133C442.541 18.133 436.149 25.749 436.149 35.813ZM444.989 35.813C444.989 30.169 448.933 25.613 454.645 25.613C460.289 25.613 464.301 30.169 464.301 35.813V36.221C464.097 41.661 460.153 46.013 454.645 46.013C448.933 46.013 444.989 41.457 444.989 35.813ZM479.911 26.293H491.471V52.813H505.751V45.333H500.311V18.813H491.471H479.911V26.293ZM500.311 26.293H511.871V18.813H500.311V26.293ZM517.395 52.813H533.715C541.875 52.813 547.995 48.053 547.995 40.573C547.995 33.093 541.875 28.333 533.715 28.333H526.235V18.813H517.395V52.813ZM526.235 35.813H533.715C536.979 35.813 539.155 37.309 539.155 40.573C539.155 43.837 536.979 45.333 533.715 45.333H526.235V35.813Z" fill="white"/>
<path d="M0 68.7542C168.975 68.7542 675.9 68.7542 506.925 68.7542C403.103 68.7542 299.28 68.7542 195.458 68.7542C159.985 68.7542 122.045 68.4486 87.5342 70.0552C75.784 70.6022 60.9687 70.0798 48.9817 70.0798C47.1779 70.0798 36.7016 70.4642 42.1852 70.5216C74.7502 70.8627 107.798 70.5216 140.383 70.5216C251.26 70.5216 361.619 72.731 472.474 72.731C496.379 72.731 568.094 72.731 544.189 72.731" stroke="#FFCA63" stroke-width="3.5023"/>
</svg>
