<svg xmlns="http://www.w3.org/2000/svg" xmlns:xlink="http://www.w3.org/1999/xlink" width="883" zoomAndPan="magnify" viewBox="0 0 662.25 85.499998" height="114" preserveAspectRatio="xMidYMid meet" version="1.0"><defs><g/><clipPath id="85584c2499"><path d="M 289 60.296875 L 635 60.296875 L 635 84.902344 L 289 84.902344 Z M 289 60.296875 " clip-rule="nonzero"/></clipPath></defs><g clip-path="url(#85584c2499)"><path stroke-linecap="round" transform="matrix(0.745639, 0, 0, 0.745639, 1.552335, 0)" fill="none" stroke-linejoin="miter" d="M 419.562273 98.148764 C 422.39646 94.748788 430.008424 92.234168 434.985276 90.725396 C 440.800335 88.965162 447.799361 88.23697 454.09115 88.205537 C 458.800824 88.184582 463.337617 87.823106 467.277189 89.997204 C 471.751117 92.475153 473.029382 98.085899 475.103944 101.569695 C 476.748924 104.335777 481.112838 106.44701 484.334695 108.673497 C 489.227726 112.057756 498.715178 108.154857 503.582016 106.761338 C 521.467251 101.632561 530.949464 92.087482 548.771834 86.901078 C 555.383189 84.978442 565.148297 83.03485 570.81667 86.958705 C 575.84591 90.437263 583.835067 104.896328 589.608216 107.997693 C 592.610044 109.61648 598.126491 108.851616 601.547423 108.8359 C 611.569231 108.78875 621.800592 102.28741 630.135509 99.049836 C 641.587508 94.602102 656.994795 87.157779 671.071428 88.399373 C 678.484319 89.059461 685.394285 95.702249 689.192409 99.793745 C 693.273428 104.199569 699.837634 105.325909 707.093361 104.189091 C 713.196553 103.230392 718.58727 99.59991 724.35518 97.902541 C 728.352378 96.729052 733.135395 96.095158 736.917802 94.649251 C 740.857374 93.145718 747.620654 92.040333 752.136493 92.019378 C 758.354939 91.993184 761.51393 96.440918 765.348726 99.474179 C 768.151479 101.690188 775.548653 107.259023 780.205939 107.426665 C 786.560594 107.66241 792.86286 107.22759 798.305965 104.754881 C 803.859084 102.229783 810.486156 100.469549 815.562545 97.478199 " stroke="#ffca63" stroke-width="6" stroke-opacity="1" stroke-miterlimit="4"/></g><g fill="#ffffff" fill-opacity="1"><g transform="translate(1.56973, 21.819841)"><g><path d="M 0.800781 -15.765625 L 2.40625 -15.765625 L 2.40625 0 L 10.6875 0 C 14.160156 0 16.832031 -2.40625 16.832031 -5.609375 C 16.832031 -7.613281 15.789062 -9.269531 14.160156 -10.261719 C 14.910156 -11.140625 15.363281 -12.238281 15.363281 -13.492188 C 15.363281 -16.433594 12.929688 -18.703125 9.617188 -18.703125 L 0.800781 -18.703125 Z M 10.6875 -8.28125 C 12.238281 -8.28125 13.359375 -7.160156 13.359375 -5.609375 C 13.359375 -4.0625 12.238281 -2.9375 10.6875 -2.9375 L 5.878906 -2.9375 L 5.878906 -8.28125 Z M 9.617188 -15.765625 C 10.980469 -15.765625 11.890625 -14.800781 11.890625 -13.492188 C 11.890625 -12.183594 10.875 -11.222656 9.617188 -11.222656 L 5.878906 -11.222656 L 5.878906 -15.765625 Z M 9.617188 -15.765625 "/></g></g></g><g fill="#ffffff" fill-opacity="1"><g transform="translate(18.66931, 21.819841)"><g><path d="M 11.140625 -7.535156 L 14.453125 -7.535156 L 14.453125 -9.484375 C 13.304688 -11.96875 10.742188 -13.625 7.800781 -13.625 C 3.847656 -13.625 0.535156 -10.632812 0.535156 -6.679688 C 0.535156 -2.726562 3.847656 0.265625 7.800781 0.265625 C 10.742188 0.265625 13.332031 -1.363281 14.453125 -3.847656 L 11.167969 -4.78125 C 10.554688 -3.527344 9.324219 -2.671875 7.800781 -2.671875 C 5.558594 -2.671875 4.007812 -4.460938 4.007812 -6.679688 C 4.007812 -8.898438 5.558594 -10.6875 7.800781 -10.6875 C 9.296875 -10.6875 10.5 -9.859375 11.140625 -8.601562 Z M 11.140625 -7.535156 "/></g></g></g><g fill="#ffffff" fill-opacity="1"><g transform="translate(33.658159, 21.819841)"><g><path d="M 15.070312 -13.359375 L 0.535156 -13.359375 L 0.535156 -10.421875 L 2.136719 -10.421875 L 2.136719 0 L 5.609375 0 L 5.609375 -10.421875 L 11.59375 -10.421875 L 11.59375 0 L 16.671875 0 L 16.671875 -2.9375 L 15.070312 -2.9375 Z M 15.070312 -13.359375 "/></g></g></g><g fill="#ffffff" fill-opacity="1"><g transform="translate(50.864604, 21.819841)"><g><path d="M 4.007812 -6.679688 C 4.007812 -8.898438 5.558594 -10.6875 7.800781 -10.6875 C 10.019531 -10.6875 11.59375 -8.898438 11.59375 -6.679688 C 11.59375 -4.460938 10.019531 -2.671875 7.800781 -2.671875 C 5.558594 -2.671875 4.007812 -4.460938 4.007812 -6.679688 Z M 0.535156 -6.679688 C 0.535156 -2.726562 3.847656 0.265625 7.800781 0.265625 C 11.757812 0.265625 15.097656 -2.726562 15.070312 -6.679688 C 15.042969 -10.632812 11.757812 -13.625 7.800781 -13.625 C 3.847656 -13.625 0.535156 -10.632812 0.535156 -6.679688 Z M 0.535156 -6.679688 "/></g></g></g><g fill="#ffffff" fill-opacity="1"><g transform="translate(66.494693, 21.819841)"><g><path d="M 5.609375 -13.359375 L 0.535156 -13.359375 L 0.535156 -10.421875 L 2.136719 -10.421875 L 2.136719 0 L 5.609375 0 L 5.609375 -8.28125 L 5.878906 -8.28125 L 8.84375 0 L 12.210938 0 L 15.175781 -8.28125 L 15.441406 -8.28125 L 15.441406 0 L 20.519531 0 L 20.519531 -2.9375 L 18.917969 -2.9375 L 18.917969 -13.359375 L 13.839844 -13.359375 L 10.527344 -3.742188 L 7.214844 -13.359375 Z M 5.609375 -13.359375 "/></g></g></g><g fill="#ffffff" fill-opacity="1"><g transform="translate(87.548549, 21.819841)"><g><path d="M 11.59375 -13.359375 L 11.59375 -8.015625 L 5.609375 -8.015625 L 5.609375 -13.359375 L 0.535156 -13.359375 L 0.535156 -10.421875 L 2.136719 -10.421875 L 2.136719 0 L 5.609375 0 L 5.609375 -5.078125 L 11.59375 -5.078125 L 11.59375 0 L 16.671875 0 L 16.671875 -2.9375 L 15.070312 -2.9375 L 15.070312 -13.359375 Z M 11.59375 -13.359375 "/></g></g></g><g fill="#ffffff" fill-opacity="1"><g transform="translate(104.754994, 21.819841)"><g><path d="M 5.609375 -13.359375 L 0.535156 -13.359375 L 0.535156 -10.421875 L 2.136719 -10.421875 L 2.136719 0 L 5.609375 0 L 5.609375 -1.335938 L 11.863281 -8.015625 L 11.863281 0 L 16.9375 0 L 16.9375 -2.9375 L 15.335938 -2.9375 L 15.335938 -13.359375 L 11.863281 -13.359375 L 11.863281 -12.023438 L 5.609375 -5.316406 Z M 5.609375 -13.359375 "/></g></g></g><g fill="#ffffff" fill-opacity="1"><g transform="translate(122.228627, 21.819841)"><g><path d="M 0.535156 -10.421875 L 5.078125 -10.421875 L 5.078125 0 L 10.6875 0 L 10.6875 -2.9375 L 8.550781 -2.9375 L 8.550781 -13.359375 L 0.535156 -13.359375 Z M 8.550781 -10.421875 L 13.09375 -10.421875 L 13.09375 -13.359375 L 8.550781 -13.359375 Z M 8.550781 -10.421875 "/></g></g></g><g fill="#ffffff" fill-opacity="1"><g transform="translate(135.320491, 21.819841)"><g><path d="M 14.800781 -6.679688 C 14.773438 -10.632812 11.757812 -13.625 7.800781 -13.625 C 3.847656 -13.625 0.535156 -10.632812 0.535156 -6.679688 C 0.535156 -2.726562 3.847656 0.265625 7.800781 0.265625 C 11.382812 0.265625 12.878906 -1.230469 14.214844 -2.777344 L 11.488281 -4.570312 C 11.035156 -3.792969 10.074219 -2.671875 7.800781 -2.671875 C 5.878906 -2.671875 4.460938 -3.980469 4.085938 -5.746094 L 14.800781 -5.746094 Z M 7.800781 -10.6875 C 9.539062 -10.6875 10.714844 -9.566406 11.140625 -8.015625 L 4.195312 -8.015625 C 4.675781 -9.566406 6.039062 -10.6875 7.800781 -10.6875 Z M 7.800781 -10.6875 "/></g></g></g><g fill="#ffffff" fill-opacity="1"><g transform="translate(150.656672, 21.819841)"><g><path d="M 0.347656 4.542969 L 2.40625 4.542969 L 5.398438 -3.207031 L 1.230469 -3.207031 Z M 0.347656 4.542969 "/></g></g></g><g fill="#ffffff" fill-opacity="1"><g transform="translate(157.282758, 21.819841)"><g/></g></g><g fill="#ffffff" fill-opacity="1"><g transform="translate(166.634094, 21.819841)"><g><path d="M 0.535156 -10.421875 L 2.40625 -10.421875 L 2.40625 0 L 5.878906 0 L 5.878906 -10.421875 L 10.421875 -10.421875 L 10.421875 -6.972656 L 13.625 -6.972656 L 13.625 -13.359375 L 0.535156 -13.359375 Z M 0.535156 -10.421875 "/></g></g></g><g fill="#ffffff" fill-opacity="1"><g transform="translate(181.596223, 21.819841)"><g><path d="M 1.710938 -10.421875 L 3.792969 -10.421875 L 3.742188 -8.070312 C 3.632812 -6.574219 3.074219 -4.730469 2.351562 -2.9375 L 0.535156 -2.9375 L 0.535156 3.472656 L 4.007812 3.472656 L 4.007812 0 L 13.226562 0 L 13.226562 3.472656 L 16.699219 3.472656 L 16.699219 -2.9375 L 14.375 -2.9375 L 14.375 -10.421875 L 14.402344 -10.421875 L 14.402344 -13.359375 L 1.710938 -13.359375 Z M 10.902344 -2.9375 L 5.796875 -2.9375 C 6.332031 -3.902344 6.945312 -5.53125 7 -8.015625 L 7.054688 -10.421875 L 10.902344 -10.421875 Z M 10.902344 -2.9375 "/></g></g></g><g fill="#ffffff" fill-opacity="1"><g transform="translate(198.428615, 21.819841)"><g><path d="M 14.800781 -6.679688 C 14.773438 -10.632812 11.757812 -13.625 7.800781 -13.625 C 3.847656 -13.625 0.535156 -10.632812 0.535156 -6.679688 C 0.535156 -2.726562 3.847656 0.265625 7.800781 0.265625 C 11.382812 0.265625 12.878906 -1.230469 14.214844 -2.777344 L 11.488281 -4.570312 C 11.035156 -3.792969 10.074219 -2.671875 7.800781 -2.671875 C 5.878906 -2.671875 4.460938 -3.980469 4.085938 -5.746094 L 14.800781 -5.746094 Z M 7.800781 -10.6875 C 9.539062 -10.6875 10.714844 -9.566406 11.140625 -8.015625 L 4.195312 -8.015625 C 4.675781 -9.566406 6.039062 -10.6875 7.800781 -10.6875 Z M 7.800781 -10.6875 "/></g></g></g><g fill="#ffffff" fill-opacity="1"><g transform="translate(213.764796, 21.819841)"><g/></g></g><g fill="#ffffff" fill-opacity="1"><g transform="translate(223.116133, 21.819841)"><g><path d="M 0.535156 -10.421875 L 2.136719 -10.421875 L 2.136719 0 L 10.152344 0 C 12.71875 0 14.828125 -1.46875 14.828125 -4.035156 C 14.828125 -5.503906 14.160156 -6.734375 12.425781 -7.292969 C 13.171875 -7.75 13.625 -8.816406 13.625 -9.617188 C 13.625 -12.101562 11.570312 -13.359375 9.085938 -13.359375 L 0.535156 -13.359375 Z M 9.804688 -5.609375 C 10.792969 -5.609375 11.355469 -5.128906 11.355469 -4.273438 C 11.355469 -3.421875 10.792969 -2.9375 9.804688 -2.9375 L 5.609375 -2.9375 L 5.609375 -5.609375 Z M 8.789062 -10.421875 C 9.699219 -10.421875 10.152344 -9.886719 10.152344 -9.109375 C 10.152344 -8.363281 9.726562 -7.855469 8.871094 -7.800781 L 5.609375 -7.800781 L 5.609375 -10.421875 Z M 8.789062 -10.421875 "/></g></g></g><g fill="#ffffff" fill-opacity="1"><g transform="translate(238.61262, 21.819841)"><g><path d="M 2.164062 -2.9375 L 2.164062 0 L 7.773438 0 C 10.980469 0 13.386719 -1.871094 13.386719 -4.808594 C 13.386719 -7.75 10.980469 -9.617188 7.773438 -9.617188 L 5.636719 -9.617188 L 5.636719 -13.359375 L 2.164062 -13.359375 Z M 14.722656 0 L 19.796875 0 L 19.796875 -2.9375 L 18.195312 -2.9375 L 18.195312 -13.359375 L 14.722656 -13.359375 Z M 5.636719 -6.679688 L 7.773438 -6.679688 C 9.058594 -6.679688 9.914062 -6.089844 9.914062 -4.808594 C 9.914062 -3.527344 9.058594 -2.9375 7.773438 -2.9375 L 5.636719 -2.9375 Z M 5.636719 -6.679688 "/></g></g></g><g fill="#ffffff" fill-opacity="1"><g transform="translate(258.94509, 21.819841)"><g/></g></g><g fill="#ffffff" fill-opacity="1"><g transform="translate(268.296427, 21.819841)"><g><path d="M 12.449219 -19.183594 C 11.648438 -18.675781 10.632812 -18.328125 8.121094 -17.980469 C 5.609375 -17.605469 3.980469 -16.832031 2.832031 -15.710938 C 1.121094 -14.027344 0.535156 -11.621094 0.535156 -8.015625 C 0.535156 -2.753906 3.339844 0.265625 7.667969 0.265625 C 11.621094 0.265625 14.828125 -2.457031 14.800781 -6.414062 C 14.773438 -10.046875 12.238281 -12.558594 8.601562 -12.558594 C 6.652344 -12.558594 5.101562 -11.941406 3.953125 -10.792969 L 3.847656 -10.792969 C 4.035156 -12.34375 4.410156 -13.144531 5.078125 -13.761719 C 5.878906 -14.507812 7.292969 -14.695312 9.21875 -14.988281 C 12.023438 -15.390625 12.824219 -15.683594 13.625 -16.21875 Z M 4.140625 -6.066406 C 4.140625 -8.09375 5.558594 -9.484375 7.75 -9.484375 C 9.914062 -9.484375 11.328125 -8.09375 11.328125 -6.066406 C 11.328125 -4.0625 9.914062 -2.671875 7.75 -2.671875 C 5.558594 -2.671875 4.140625 -4.0625 4.140625 -6.066406 Z M 4.140625 -6.066406 "/></g></g></g><g fill="#ffffff" fill-opacity="1"><g transform="translate(283.659328, 21.819841)"><g><path d="M 2.164062 -2.9375 L 2.164062 0 L 7.773438 0 C 10.980469 0 13.386719 -1.871094 13.386719 -4.808594 C 13.386719 -7.75 10.980469 -9.617188 7.773438 -9.617188 L 5.636719 -9.617188 L 5.636719 -13.359375 L 2.164062 -13.359375 Z M 14.722656 0 L 19.796875 0 L 19.796875 -2.9375 L 18.195312 -2.9375 L 18.195312 -13.359375 L 14.722656 -13.359375 Z M 5.636719 -6.679688 L 7.773438 -6.679688 C 9.058594 -6.679688 9.914062 -6.089844 9.914062 -4.808594 C 9.914062 -3.527344 9.058594 -2.9375 7.773438 -2.9375 L 5.636719 -2.9375 Z M 5.636719 -6.679688 "/></g></g></g><g fill="#ffffff" fill-opacity="1"><g transform="translate(303.991781, 21.819841)"><g><path d="M 1.738281 -10.421875 L 3.792969 -10.421875 L 3.527344 -7 C 3.257812 -3.765625 2.992188 -3.207031 0.800781 -3.207031 L 0.800781 0 C 1.308594 0.160156 1.65625 0.265625 2.296875 0.265625 C 4.703125 0.265625 6.492188 -1.253906 6.894531 -6.945312 L 7.132812 -10.421875 L 10.765625 -10.421875 L 10.765625 0 L 15.84375 0 L 15.84375 -2.9375 L 14.242188 -2.9375 L 14.242188 -13.359375 L 1.738281 -13.359375 Z M 1.738281 -10.421875 "/></g></g></g><g fill="#ffffff" fill-opacity="1"><g transform="translate(320.236407, 21.819841)"><g><path d="M 5.609375 -13.359375 L 0.535156 -13.359375 L 0.535156 -10.421875 L 2.136719 -10.421875 L 2.136719 0 L 5.609375 0 L 5.609375 -1.335938 L 11.863281 -8.015625 L 11.863281 0 L 16.9375 0 L 16.9375 -2.9375 L 15.335938 -2.9375 L 15.335938 -13.359375 L 11.863281 -13.359375 L 11.863281 -12.023438 L 5.609375 -5.316406 Z M 5.609375 -13.359375 "/></g></g></g><g fill="#ffffff" fill-opacity="1"><g transform="translate(337.703828, 21.819841)"><g/></g></g><g fill="#ffca63" fill-opacity="1"><g transform="translate(347.062156, 21.819841)"><g><path d="M 10.421875 -2.9375 L 7.480469 -2.9375 L 7.480469 -18.703125 L 0.800781 -18.703125 L 0.800781 -15.765625 L 4.007812 -15.765625 L 4.007812 -2.9375 L 0.800781 -2.9375 L 0.800781 0 L 10.421875 0 Z M 10.421875 -2.9375 "/></g></g></g><g fill="#ffca63" fill-opacity="1"><g transform="translate(358.283756, 21.819841)"><g><path d="M 1.042969 -3.980469 C 1.816406 -1.46875 4.328125 0.265625 7.480469 0.265625 C 11.273438 0.265625 14.160156 -2.351562 14.160156 -5.878906 C 14.160156 -9.40625 11.515625 -12.023438 7.75 -12.023438 C 6.945312 -12.023438 6.199219 -11.890625 5.476562 -11.648438 L 6.011719 -16.03125 L 13.066406 -16.03125 L 13.066406 -18.96875 L 3.074219 -18.96875 L 2.671875 -16.03125 L 1.871094 -8.816406 L 5.078125 -8.121094 C 5.796875 -8.710938 6.679688 -9.085938 7.75 -9.085938 C 9.539062 -9.085938 10.6875 -7.828125 10.6875 -5.878906 C 10.6875 -4.007812 9.351562 -2.671875 7.480469 -2.671875 C 5.746094 -2.671875 4.167969 -3.6875 3.792969 -5.34375 Z M 1.042969 -3.980469 "/></g></g></g><g fill="#ffca63" fill-opacity="1"><g transform="translate(373.245885, 21.819841)"><g/></g></g><g fill="#ffca63" fill-opacity="1"><g transform="translate(382.597221, 21.819841)"><g><path d="M 1.738281 -10.421875 L 3.792969 -10.421875 L 3.527344 -7 C 3.257812 -3.765625 2.992188 -3.207031 0.800781 -3.207031 L 0.800781 0 C 1.308594 0.160156 1.65625 0.265625 2.296875 0.265625 C 4.703125 0.265625 6.492188 -1.253906 6.894531 -6.945312 L 7.132812 -10.421875 L 10.765625 -10.421875 L 10.765625 0 L 15.84375 0 L 15.84375 -2.9375 L 14.242188 -2.9375 L 14.242188 -13.359375 L 1.738281 -13.359375 Z M 1.738281 -10.421875 "/></g></g></g><g fill="#ffca63" fill-opacity="1"><g transform="translate(398.841831, 21.819841)"><g><path d="M 14.800781 -6.679688 C 14.773438 -10.632812 11.757812 -13.625 7.800781 -13.625 C 3.847656 -13.625 0.535156 -10.632812 0.535156 -6.679688 C 0.535156 -2.726562 3.847656 0.265625 7.800781 0.265625 C 11.382812 0.265625 12.878906 -1.230469 14.214844 -2.777344 L 11.488281 -4.570312 C 11.035156 -3.792969 10.074219 -2.671875 7.800781 -2.671875 C 5.878906 -2.671875 4.460938 -3.980469 4.085938 -5.746094 L 14.800781 -5.746094 Z M 7.800781 -10.6875 C 9.539062 -10.6875 10.714844 -9.566406 11.140625 -8.015625 L 4.195312 -8.015625 C 4.675781 -9.566406 6.039062 -10.6875 7.800781 -10.6875 Z M 7.800781 -10.6875 "/></g></g></g><g fill="#ffca63" fill-opacity="1"><g transform="translate(414.178012, 21.819841)"><g><path d="M 0.535156 -10.421875 L 5.078125 -10.421875 L 5.078125 0 L 10.6875 0 L 10.6875 -2.9375 L 8.550781 -2.9375 L 8.550781 -13.359375 L 0.535156 -13.359375 Z M 8.550781 -10.421875 L 13.09375 -10.421875 L 13.09375 -13.359375 L 8.550781 -13.359375 Z M 8.550781 -10.421875 "/></g></g></g><g fill="#ffca63" fill-opacity="1"><g transform="translate(427.269876, 21.819841)"><g/></g></g><g fill="#ffca63" fill-opacity="1"><g transform="translate(436.621213, 21.819841)"><g><path d="M 11.59375 -13.359375 L 11.59375 -8.015625 L 5.609375 -8.015625 L 5.609375 -13.359375 L 0.535156 -13.359375 L 0.535156 -10.421875 L 2.136719 -10.421875 L 2.136719 0 L 5.609375 0 L 5.609375 -5.078125 L 11.59375 -5.078125 L 11.59375 0 L 16.671875 0 L 16.671875 -2.9375 L 15.070312 -2.9375 L 15.070312 -13.359375 Z M 11.59375 -13.359375 "/></g></g></g><g fill="#ffca63" fill-opacity="1"><g transform="translate(453.827658, 21.819841)"><g><path d="M 0.535156 -6.679688 C 0.535156 -2.726562 3.046875 0.265625 7 0.265625 C 9.058594 0.265625 10.605469 -0.535156 11.59375 -1.898438 L 11.59375 0 L 16.671875 0 L 16.671875 -2.9375 L 15.070312 -2.9375 L 15.070312 -13.359375 L 11.59375 -13.359375 L 11.59375 -11.410156 C 10.605469 -12.796875 9.085938 -13.625 7 -13.625 C 3.046875 -13.625 0.535156 -10.632812 0.535156 -6.679688 Z M 4.007812 -6.679688 C 4.007812 -8.898438 5.558594 -10.6875 7.800781 -10.6875 C 10.019531 -10.6875 11.59375 -8.898438 11.59375 -6.679688 L 11.59375 -6.519531 C 11.515625 -4.382812 9.964844 -2.671875 7.800781 -2.671875 C 5.558594 -2.671875 4.007812 -4.460938 4.007812 -6.679688 Z M 4.007812 -6.679688 "/></g></g></g><g fill="#ffca63" fill-opacity="1"><g transform="translate(471.034103, 21.819841)"><g><path d="M 6.785156 -2.40625 C 5.316406 -2.40625 4.167969 -3.285156 3.605469 -4.703125 L 0.667969 -3.847656 C 1.789062 -1.363281 4.007812 0.265625 7.214844 0.265625 C 10.582031 0.265625 13.144531 -1.308594 13.144531 -4.035156 C 13.144531 -5.238281 12.316406 -6.679688 10.472656 -6.972656 C 11.996094 -7.292969 12.476562 -8.550781 12.476562 -9.617188 C 12.476562 -12.101562 9.886719 -13.625 6.867188 -13.625 C 4.0625 -13.625 2.136719 -12.289062 1.09375 -10.285156 L 1.09375 -8.015625 L 4.035156 -8.015625 L 4.035156 -9.59375 C 4.570312 -10.339844 5.449219 -10.953125 6.574219 -10.953125 C 8.257812 -10.953125 9.003906 -10.261719 9.003906 -9.351562 C 9.003906 -8.601562 8.042969 -7.800781 6.597656 -7.800781 L 5.449219 -7.800781 L 5.449219 -5.609375 L 7.054688 -5.609375 C 8.683594 -5.609375 9.671875 -5.078125 9.671875 -4.140625 C 9.671875 -2.9375 8.46875 -2.40625 6.785156 -2.40625 Z M 6.785156 -2.40625 "/></g></g></g><g fill="#ffca63" fill-opacity="1"><g transform="translate(484.847353, 21.819841)"><g><path d="M 0.535156 -6.679688 C 0.535156 -2.726562 3.046875 0.265625 7 0.265625 C 9.058594 0.265625 10.605469 -0.535156 11.59375 -1.898438 L 11.59375 0 L 16.671875 0 L 16.671875 -2.9375 L 15.070312 -2.9375 L 15.070312 -13.359375 L 11.59375 -13.359375 L 11.59375 -11.410156 C 10.605469 -12.796875 9.085938 -13.625 7 -13.625 C 3.046875 -13.625 0.535156 -10.632812 0.535156 -6.679688 Z M 4.007812 -6.679688 C 4.007812 -8.898438 5.558594 -10.6875 7.800781 -10.6875 C 10.019531 -10.6875 11.59375 -8.898438 11.59375 -6.679688 L 11.59375 -6.519531 C 11.515625 -4.382812 9.964844 -2.671875 7.800781 -2.671875 C 5.558594 -2.671875 4.007812 -4.460938 4.007812 -6.679688 Z M 4.007812 -6.679688 "/></g></g></g><g fill="#ffca63" fill-opacity="1"><g transform="translate(502.053798, 21.819841)"><g><path d="M 1.710938 -10.421875 L 3.792969 -10.421875 L 3.742188 -8.070312 C 3.632812 -6.574219 3.074219 -4.730469 2.351562 -2.9375 L 0.535156 -2.9375 L 0.535156 3.472656 L 4.007812 3.472656 L 4.007812 0 L 13.226562 0 L 13.226562 3.472656 L 16.699219 3.472656 L 16.699219 -2.9375 L 14.375 -2.9375 L 14.375 -10.421875 L 14.402344 -10.421875 L 14.402344 -13.359375 L 1.710938 -13.359375 Z M 10.902344 -2.9375 L 5.796875 -2.9375 C 6.332031 -3.902344 6.945312 -5.53125 7 -8.015625 L 7.054688 -10.421875 L 10.902344 -10.421875 Z M 10.902344 -2.9375 "/></g></g></g><g fill="#ffca63" fill-opacity="1"><g transform="translate(518.88619, 21.819841)"><g><path d="M 1.335938 -1.710938 C 1.335938 -0.613281 2.21875 0.265625 3.3125 0.265625 C 4.410156 0.265625 5.289062 -0.613281 5.289062 -1.710938 C 5.289062 -2.804688 4.410156 -3.6875 3.3125 -3.6875 C 2.21875 -3.6875 1.335938 -2.804688 1.335938 -1.710938 Z M 1.335938 -1.710938 "/></g></g></g><g fill="#ffffff" fill-opacity="1"><g transform="translate(1.552335, 51.038964)"><g><path d="M 14.265625 -18.726562 L 14.265625 -16.5625 L 5.878906 -6.546875 L 5.878906 -18.726562 L 0.800781 -18.726562 L 0.800781 -15.789062 L 2.40625 -15.789062 L 2.40625 0 L 5.878906 0 L 5.878906 -2.136719 L 14.265625 -12.15625 L 14.265625 0 L 19.34375 0 L 19.34375 -2.9375 L 17.738281 -2.9375 L 17.738281 -18.726562 Z M 14.265625 -18.726562 "/></g></g></g><g fill="#ffffff" fill-opacity="1"><g transform="translate(21.695341, 51.038964)"><g/></g></g><g fill="#ffffff" fill-opacity="1"><g transform="translate(31.045542, 51.038964)"><g><path d="M 5.609375 -13.359375 L 0.535156 -13.359375 L 0.535156 -10.417969 L 2.136719 -10.417969 L 2.136719 0 L 5.609375 0 L 5.609375 -5.609375 L 8.121094 -5.609375 L 11.460938 0 L 15.335938 0 L 11.058594 -6.945312 L 15.066406 -13.359375 L 11.195312 -13.359375 L 8.28125 -8.550781 L 5.609375 -8.550781 Z M 5.609375 -13.359375 "/></g></g></g><g fill="#ffffff" fill-opacity="1"><g transform="translate(46.914171, 51.038964)"><g><path d="M 0.535156 -6.679688 C 0.535156 -2.726562 3.046875 0.265625 7 0.265625 C 9.058594 0.265625 10.605469 -0.535156 11.59375 -1.898438 L 11.59375 0 L 16.671875 0 L 16.671875 -2.9375 L 15.066406 -2.9375 L 15.066406 -13.359375 L 11.59375 -13.359375 L 11.59375 -11.40625 C 10.605469 -12.796875 9.082031 -13.625 7 -13.625 C 3.046875 -13.625 0.535156 -10.632812 0.535156 -6.679688 Z M 4.007812 -6.679688 C 4.007812 -8.898438 5.558594 -10.6875 7.800781 -10.6875 C 10.019531 -10.6875 11.59375 -8.898438 11.59375 -6.679688 L 11.59375 -6.519531 C 11.515625 -4.382812 9.964844 -2.671875 7.800781 -2.671875 C 5.558594 -2.671875 4.007812 -4.460938 4.007812 -6.679688 Z M 4.007812 -6.679688 "/></g></g></g><g fill="#ffffff" fill-opacity="1"><g transform="translate(64.118537, 51.038964)"><g><path d="M 5.609375 -13.359375 L 0.535156 -13.359375 L 0.535156 -10.417969 L 2.136719 -10.417969 L 2.136719 0 L 5.609375 0 L 5.609375 -5.609375 L 8.121094 -5.609375 L 11.460938 0 L 15.335938 0 L 11.058594 -6.945312 L 15.066406 -13.359375 L 11.195312 -13.359375 L 8.28125 -8.550781 L 5.609375 -8.550781 Z M 5.609375 -13.359375 "/></g></g></g><g fill="#ffffff" fill-opacity="1"><g transform="translate(79.987166, 51.038964)"><g><path d="M 4.007812 -6.679688 C 4.007812 -8.898438 5.558594 -10.6875 7.800781 -10.6875 C 10.019531 -10.6875 11.59375 -8.898438 11.59375 -6.679688 C 11.59375 -4.460938 10.019531 -2.671875 7.800781 -2.671875 C 5.558594 -2.671875 4.007812 -4.460938 4.007812 -6.679688 Z M 0.535156 -6.679688 C 0.535156 -2.726562 3.847656 0.265625 7.800781 0.265625 C 11.753906 0.265625 15.09375 -2.726562 15.066406 -6.679688 C 15.042969 -10.632812 11.753906 -13.625 7.800781 -13.625 C 3.847656 -13.625 0.535156 -10.632812 0.535156 -6.679688 Z M 0.535156 -6.679688 "/></g></g></g><g fill="#ffffff" fill-opacity="1"><g transform="translate(95.615354, 51.038964)"><g><path d="M 5.609375 -13.359375 L 0.535156 -13.359375 L 0.535156 -10.417969 L 2.136719 -10.417969 L 2.136719 0 L 5.609375 0 L 5.609375 -1.335938 L 11.863281 -8.015625 L 11.863281 0 L 16.9375 0 L 16.9375 -2.9375 L 15.335938 -2.9375 L 15.335938 -13.359375 L 11.863281 -13.359375 L 11.863281 -12.023438 L 5.609375 -5.316406 Z M 4.273438 -18.703125 C 4.273438 -15.496094 6.144531 -14.425781 8.734375 -14.425781 C 11.328125 -14.425781 13.199219 -15.496094 13.199219 -18.703125 L 10.605469 -18.703125 C 10.605469 -17.390625 9.992188 -16.859375 8.734375 -16.832031 C 7.480469 -16.859375 6.867188 -17.390625 6.867188 -18.703125 Z M 4.273438 -18.703125 "/></g></g></g><g fill="#ffffff" fill-opacity="1"><g transform="translate(113.086865, 51.038964)"><g/></g></g><g fill="#ffffff" fill-opacity="1"><g transform="translate(122.437065, 51.038964)"><g><path d="M 15.066406 -13.359375 L 0.535156 -13.359375 L 0.535156 -10.417969 L 2.136719 -10.417969 L 2.136719 0 L 5.609375 0 L 5.609375 -10.417969 L 11.59375 -10.417969 L 11.59375 0 L 16.671875 0 L 16.671875 -2.9375 L 15.066406 -2.9375 Z M 15.066406 -13.359375 "/></g></g></g><g fill="#ffffff" fill-opacity="1"><g transform="translate(139.641431, 51.038964)"><g><path d="M 3.207031 6.679688 L 3.6875 6.679688 C 8.042969 6.679688 8.628906 4.914062 9.75 1.601562 L 14.773438 -13.359375 L 11.035156 -13.359375 L 7.585938 -3.046875 L 3.875 -13.359375 L 0.132812 -13.359375 L 5.210938 0 L 6.546875 0 L 5.957031 1.789062 C 5.449219 3.3125 4.914062 3.742188 3.472656 3.742188 L 3.207031 3.742188 Z M 3.207031 6.679688 "/></g></g></g><g fill="#ffffff" fill-opacity="1"><g transform="translate(154.548316, 51.038964)"><g><path d="M 0.535156 -10.417969 L 5.074219 -10.417969 L 5.074219 0 L 10.6875 0 L 10.6875 -2.9375 L 8.550781 -2.9375 L 8.550781 -13.359375 L 0.535156 -13.359375 Z M 8.550781 -10.417969 L 13.089844 -10.417969 L 13.089844 -13.359375 L 8.550781 -13.359375 Z M 8.550781 -10.417969 "/></g></g></g><g fill="#ffffff" fill-opacity="1"><g transform="translate(167.638592, 51.038964)"><g><path d="M 2.164062 0 L 8.574219 0 C 11.78125 0 14.1875 -1.871094 14.1875 -4.808594 C 14.1875 -7.746094 11.78125 -9.617188 8.574219 -9.617188 L 5.636719 -9.617188 L 5.636719 -13.359375 L 2.164062 -13.359375 Z M 5.636719 -6.679688 L 8.574219 -6.679688 C 9.859375 -6.679688 10.714844 -6.089844 10.714844 -4.808594 C 10.714844 -3.527344 9.859375 -2.9375 8.574219 -2.9375 L 5.636719 -2.9375 Z M 5.636719 -6.679688 "/></g></g></g><g fill="#ffffff" fill-opacity="1"><g transform="translate(182.358475, 51.038964)"><g/></g></g><g fill="#ffffff" fill-opacity="1"><g transform="translate(191.708675, 51.038964)"><g><path d="M 15.066406 -13.359375 L 0.535156 -13.359375 L 0.535156 -10.417969 L 2.136719 -10.417969 L 2.136719 0 L 5.609375 0 L 5.609375 -10.417969 L 11.59375 -10.417969 L 11.59375 0 L 16.671875 0 L 16.671875 -2.9375 L 15.066406 -2.9375 Z M 15.066406 -13.359375 "/></g></g></g><g fill="#ffffff" fill-opacity="1"><g transform="translate(208.913041, 51.038964)"><g><path d="M 10.554688 -13.757812 C 8.363281 -13.757812 6.707031 -12.902344 5.609375 -11.515625 L 5.609375 -13.359375 L 0.535156 -13.359375 L 0.535156 -10.417969 L 2.136719 -10.417969 L 2.136719 6.679688 L 5.609375 6.679688 L 5.609375 -1.84375 C 6.707031 -0.425781 8.363281 0.402344 10.554688 0.402344 C 14.507812 0.402344 16.964844 -2.644531 16.964844 -6.679688 C 16.964844 -10.714844 14.507812 -13.757812 10.554688 -13.757812 Z M 9.484375 -2.644531 C 7.238281 -2.644531 5.609375 -4.433594 5.609375 -6.679688 L 5.609375 -6.839844 C 5.691406 -9.003906 7.292969 -10.714844 9.484375 -10.714844 C 11.726562 -10.714844 13.359375 -8.921875 13.359375 -6.679688 C 13.359375 -4.433594 11.726562 -2.644531 9.484375 -2.644531 Z M 9.484375 -2.644531 "/></g></g></g><g fill="#ffffff" fill-opacity="1"><g transform="translate(226.411266, 51.038964)"><g><path d="M 4.007812 -6.679688 C 4.007812 -8.898438 5.558594 -10.6875 7.800781 -10.6875 C 10.019531 -10.6875 11.59375 -8.898438 11.59375 -6.679688 C 11.59375 -4.460938 10.019531 -2.671875 7.800781 -2.671875 C 5.558594 -2.671875 4.007812 -4.460938 4.007812 -6.679688 Z M 0.535156 -6.679688 C 0.535156 -2.726562 3.847656 0.265625 7.800781 0.265625 C 11.753906 0.265625 15.09375 -2.726562 15.066406 -6.679688 C 15.042969 -10.632812 11.753906 -13.625 7.800781 -13.625 C 3.847656 -13.625 0.535156 -10.632812 0.535156 -6.679688 Z M 0.535156 -6.679688 "/></g></g></g><g fill="#ffffff" fill-opacity="1"><g transform="translate(242.039453, 51.038964)"><g><path d="M 2.136719 0 L 20.570312 0 L 20.570312 -2.9375 L 18.96875 -2.9375 L 18.96875 -13.359375 L 15.496094 -13.359375 L 15.496094 -2.9375 L 12.289062 -2.9375 L 12.289062 -13.359375 L 8.816406 -13.359375 L 8.816406 -2.9375 L 5.609375 -2.9375 L 5.609375 -13.359375 L 0.535156 -13.359375 L 0.535156 -10.417969 L 2.136719 -10.417969 Z M 2.136719 0 "/></g></g></g><g fill="#ffffff" fill-opacity="1"><g transform="translate(263.144182, 51.038964)"><g><path d="M 1.738281 -10.417969 L 3.792969 -10.417969 L 3.527344 -7 C 3.257812 -3.765625 2.992188 -3.207031 0.800781 -3.207031 L 0.800781 0 C 1.308594 0.160156 1.65625 0.265625 2.296875 0.265625 C 4.703125 0.265625 6.492188 -1.253906 6.894531 -6.945312 L 7.132812 -10.417969 L 10.765625 -10.417969 L 10.765625 0 L 15.84375 0 L 15.84375 -2.9375 L 14.238281 -2.9375 L 14.238281 -13.359375 L 1.738281 -13.359375 Z M 1.738281 -10.417969 "/></g></g></g><g fill="#ffffff" fill-opacity="1"><g transform="translate(279.386825, 51.038964)"><g><path d="M 5.609375 -13.359375 L 0.535156 -13.359375 L 0.535156 -10.417969 L 2.136719 -10.417969 L 2.136719 0 L 5.609375 0 L 5.609375 -1.335938 L 11.863281 -8.015625 L 11.863281 0 L 16.9375 0 L 16.9375 -2.9375 L 15.335938 -2.9375 L 15.335938 -13.359375 L 11.863281 -13.359375 L 11.863281 -12.023438 L 5.609375 -5.316406 Z M 5.609375 -13.359375 "/></g></g></g><g fill="#ffffff" fill-opacity="1"><g transform="translate(296.858337, 51.038964)"><g/></g></g><g fill="#ffffff" fill-opacity="1"><g transform="translate(306.208548, 51.038964)"><g><path d="M 5.609375 -13.359375 L 0.535156 -13.359375 L 0.535156 -10.417969 L 2.136719 -10.417969 L 2.136719 0 L 5.609375 0 L 5.609375 -5.609375 L 8.121094 -5.609375 L 11.460938 0 L 15.335938 0 L 11.058594 -6.945312 L 15.066406 -13.359375 L 11.195312 -13.359375 L 8.28125 -8.550781 L 5.609375 -8.550781 Z M 5.609375 -13.359375 "/></g></g></g><g fill="#ffffff" fill-opacity="1"><g transform="translate(322.077189, 51.038964)"><g/></g></g><g fill="#ffffff" fill-opacity="1"><g transform="translate(331.427401, 51.038964)"><g><path d="M 11.140625 -7.535156 L 14.453125 -7.535156 L 14.453125 -9.484375 C 13.304688 -11.96875 10.738281 -13.625 7.800781 -13.625 C 3.847656 -13.625 0.535156 -10.632812 0.535156 -6.679688 C 0.535156 -2.726562 3.847656 0.265625 7.800781 0.265625 C 10.738281 0.265625 13.332031 -1.363281 14.453125 -3.847656 L 11.167969 -4.78125 C 10.554688 -3.527344 9.324219 -2.671875 7.800781 -2.671875 C 5.558594 -2.671875 4.007812 -4.460938 4.007812 -6.679688 C 4.007812 -8.898438 5.558594 -10.6875 7.800781 -10.6875 C 9.296875 -10.6875 10.5 -9.859375 11.140625 -8.601562 Z M 11.140625 -7.535156 "/></g></g></g><g fill="#ffffff" fill-opacity="1"><g transform="translate(346.41444, 51.038964)"><g><path d="M 14.800781 -6.679688 C 14.773438 -10.632812 11.753906 -13.625 7.800781 -13.625 C 3.847656 -13.625 0.535156 -10.632812 0.535156 -6.679688 C 0.535156 -2.726562 3.847656 0.265625 7.800781 0.265625 C 11.382812 0.265625 12.878906 -1.230469 14.214844 -2.777344 L 11.488281 -4.570312 C 11.035156 -3.792969 10.070312 -2.671875 7.800781 -2.671875 C 5.878906 -2.671875 4.460938 -3.980469 4.085938 -5.742188 L 14.800781 -5.742188 Z M 7.800781 -10.6875 C 9.539062 -10.6875 10.714844 -9.5625 11.140625 -8.015625 L 4.195312 -8.015625 C 4.675781 -9.5625 6.039062 -10.6875 7.800781 -10.6875 Z M 7.800781 -10.6875 "/></g></g></g><g fill="#ffffff" fill-opacity="1"><g transform="translate(361.748768, 51.038964)"><g><path d="M 12.449219 -19.183594 C 11.648438 -18.675781 10.632812 -18.328125 8.121094 -17.980469 C 5.609375 -17.605469 3.980469 -16.832031 2.832031 -15.710938 C 1.121094 -14.027344 0.535156 -11.621094 0.535156 -8.015625 C 0.535156 -2.75 3.339844 0.265625 7.667969 0.265625 C 11.621094 0.265625 14.828125 -2.457031 14.800781 -6.410156 C 14.773438 -10.046875 12.234375 -12.558594 8.601562 -12.558594 C 6.652344 -12.558594 5.101562 -11.941406 3.953125 -10.792969 L 3.847656 -10.792969 C 4.035156 -12.34375 4.40625 -13.144531 5.074219 -13.757812 C 5.878906 -14.507812 7.292969 -14.695312 9.21875 -14.988281 C 12.023438 -15.386719 12.824219 -15.683594 13.625 -16.214844 Z M 4.140625 -6.066406 C 4.140625 -8.09375 5.558594 -9.484375 7.746094 -9.484375 C 9.910156 -9.484375 11.328125 -8.09375 11.328125 -6.066406 C 11.328125 -4.0625 9.910156 -2.671875 7.746094 -2.671875 C 5.558594 -2.671875 4.140625 -4.0625 4.140625 -6.066406 Z M 4.140625 -6.066406 "/></g></g></g><g fill="#ffffff" fill-opacity="1"><g transform="translate(377.109811, 51.038964)"><g><path d="M 14.800781 -6.679688 C 14.773438 -10.632812 11.753906 -13.625 7.800781 -13.625 C 3.847656 -13.625 0.535156 -10.632812 0.535156 -6.679688 C 0.535156 -2.726562 3.847656 0.265625 7.800781 0.265625 C 11.382812 0.265625 12.878906 -1.230469 14.214844 -2.777344 L 11.488281 -4.570312 C 11.035156 -3.792969 10.070312 -2.671875 7.800781 -2.671875 C 5.878906 -2.671875 4.460938 -3.980469 4.085938 -5.742188 L 14.800781 -5.742188 Z M 7.800781 -10.6875 C 9.539062 -10.6875 10.714844 -9.5625 11.140625 -8.015625 L 4.195312 -8.015625 C 4.675781 -9.5625 6.039062 -10.6875 7.800781 -10.6875 Z M 7.800781 -10.6875 "/></g></g></g><g fill="#ffffff" fill-opacity="1"><g transform="translate(392.444139, 51.038964)"><g/></g></g><g fill="#ffffff" fill-opacity="1"><g transform="translate(401.794351, 51.038964)"><g><path d="M 11.140625 -7.535156 L 14.453125 -7.535156 L 14.453125 -9.484375 C 13.304688 -11.96875 10.738281 -13.625 7.800781 -13.625 C 3.847656 -13.625 0.535156 -10.632812 0.535156 -6.679688 C 0.535156 -2.726562 3.847656 0.265625 7.800781 0.265625 C 10.738281 0.265625 13.332031 -1.363281 14.453125 -3.847656 L 11.167969 -4.78125 C 10.554688 -3.527344 9.324219 -2.671875 7.800781 -2.671875 C 5.558594 -2.671875 4.007812 -4.460938 4.007812 -6.679688 C 4.007812 -8.898438 5.558594 -10.6875 7.800781 -10.6875 C 9.296875 -10.6875 10.5 -9.859375 11.140625 -8.601562 Z M 11.140625 -7.535156 "/></g></g></g><g fill="#ffffff" fill-opacity="1"><g transform="translate(416.781413, 51.038964)"><g><path d="M 14.800781 -6.679688 C 14.773438 -10.632812 11.753906 -13.625 7.800781 -13.625 C 3.847656 -13.625 0.535156 -10.632812 0.535156 -6.679688 C 0.535156 -2.726562 3.847656 0.265625 7.800781 0.265625 C 11.382812 0.265625 12.878906 -1.230469 14.214844 -2.777344 L 11.488281 -4.570312 C 11.035156 -3.792969 10.070312 -2.671875 7.800781 -2.671875 C 5.878906 -2.671875 4.460938 -3.980469 4.085938 -5.742188 L 14.800781 -5.742188 Z M 7.800781 -10.6875 C 9.539062 -10.6875 10.714844 -9.5625 11.140625 -8.015625 L 4.195312 -8.015625 C 4.675781 -9.5625 6.039062 -10.6875 7.800781 -10.6875 Z M 7.800781 -10.6875 "/></g></g></g><g fill="#ffffff" fill-opacity="1"><g transform="translate(432.115718, 51.038964)"><g><path d="M 0.535156 -10.417969 L 2.40625 -10.417969 L 2.40625 0 L 5.878906 0 L 5.878906 -10.417969 L 10.417969 -10.417969 L 10.417969 -6.972656 L 13.625 -6.972656 L 13.625 -13.359375 L 0.535156 -13.359375 Z M 0.535156 -10.417969 "/></g></g></g><g fill="#ffffff" fill-opacity="1"><g transform="translate(447.076021, 51.038964)"><g><path d="M 4.007812 -6.679688 C 4.007812 -8.898438 5.558594 -10.6875 7.800781 -10.6875 C 10.019531 -10.6875 11.59375 -8.898438 11.59375 -6.679688 C 11.59375 -4.460938 10.019531 -2.671875 7.800781 -2.671875 C 5.558594 -2.671875 4.007812 -4.460938 4.007812 -6.679688 Z M 0.535156 -6.679688 C 0.535156 -2.726562 3.847656 0.265625 7.800781 0.265625 C 11.753906 0.265625 15.09375 -2.726562 15.066406 -6.679688 C 15.042969 -10.632812 11.753906 -13.625 7.800781 -13.625 C 3.847656 -13.625 0.535156 -10.632812 0.535156 -6.679688 Z M 0.535156 -6.679688 "/></g></g></g><g fill="#ffffff" fill-opacity="1"><g transform="translate(462.704231, 51.038964)"><g><path d="M 1.710938 -10.417969 L 3.792969 -10.417969 L 3.742188 -8.066406 C 3.632812 -6.570312 3.074219 -4.730469 2.351562 -2.9375 L 0.535156 -2.9375 L 0.535156 3.472656 L 4.007812 3.472656 L 4.007812 0 L 13.222656 0 L 13.222656 3.472656 L 16.699219 3.472656 L 16.699219 -2.9375 L 14.375 -2.9375 L 14.375 -10.417969 L 14.398438 -10.417969 L 14.398438 -13.359375 L 1.710938 -13.359375 Z M 10.898438 -2.9375 L 5.796875 -2.9375 C 6.332031 -3.902344 6.945312 -5.53125 7 -8.015625 L 7.054688 -10.417969 L 10.898438 -10.417969 Z M 10.898438 -2.9375 "/></g></g></g><g fill="#ffffff" fill-opacity="1"><g transform="translate(479.534594, 51.038964)"><g><path d="M 11.59375 -13.359375 L 11.59375 -8.015625 L 5.609375 -8.015625 L 5.609375 -13.359375 L 0.535156 -13.359375 L 0.535156 -10.417969 L 2.136719 -10.417969 L 2.136719 0 L 5.609375 0 L 5.609375 -5.074219 L 11.59375 -5.074219 L 11.59375 0 L 16.671875 0 L 16.671875 -2.9375 L 15.066406 -2.9375 L 15.066406 -13.359375 Z M 11.59375 -13.359375 "/></g></g></g><g fill="#ffffff" fill-opacity="1"><g transform="translate(496.73896, 51.038964)"><g><path d="M 15.441406 -2.9375 L 13.570312 -2.9375 L 13.570312 -13.359375 L 6.625 -13.359375 C 3.417969 -13.359375 1.015625 -11.488281 1.015625 -8.550781 C 1.015625 -6.757812 1.898438 -5.371094 3.3125 -4.542969 L 0.535156 0 L 4.621094 0 L 6.894531 -3.742188 L 10.097656 -3.742188 L 10.097656 0 L 15.441406 0 Z M 10.097656 -6.679688 L 6.625 -6.679688 C 5.34375 -6.679688 4.488281 -7.265625 4.488281 -8.550781 C 4.488281 -9.832031 5.34375 -10.417969 6.625 -10.417969 L 10.097656 -10.417969 Z M 10.097656 -6.679688 "/></g></g></g><g fill="#ffffff" fill-opacity="1"><g transform="translate(512.714459, 51.038964)"><g><path d="M 2.136719 0 L 20.570312 0 L 20.570312 -2.9375 L 18.96875 -2.9375 L 18.96875 -13.359375 L 15.496094 -13.359375 L 15.496094 -2.9375 L 12.289062 -2.9375 L 12.289062 -13.359375 L 8.816406 -13.359375 L 8.816406 -2.9375 L 5.609375 -2.9375 L 5.609375 -13.359375 L 0.535156 -13.359375 L 0.535156 -10.417969 L 2.136719 -10.417969 Z M 2.136719 0 "/></g></g></g><g fill="#ffffff" fill-opacity="1"><g transform="translate(533.819187, 51.038964)"><g><path d="M 11.59375 -13.359375 L 11.59375 -8.015625 L 5.609375 -8.015625 L 5.609375 -13.359375 L 0.535156 -13.359375 L 0.535156 -10.417969 L 2.136719 -10.417969 L 2.136719 0 L 5.609375 0 L 5.609375 -5.074219 L 11.59375 -5.074219 L 11.59375 0 L 16.671875 0 L 16.671875 -2.9375 L 15.066406 -2.9375 L 15.066406 -13.359375 Z M 11.59375 -13.359375 "/></g></g></g><g fill="#ffffff" fill-opacity="1"><g transform="translate(551.023553, 51.038964)"><g><path d="M 14.800781 -6.679688 C 14.773438 -10.632812 11.753906 -13.625 7.800781 -13.625 C 3.847656 -13.625 0.535156 -10.632812 0.535156 -6.679688 C 0.535156 -2.726562 3.847656 0.265625 7.800781 0.265625 C 11.382812 0.265625 12.878906 -1.230469 14.214844 -2.777344 L 11.488281 -4.570312 C 11.035156 -3.792969 10.070312 -2.671875 7.800781 -2.671875 C 5.878906 -2.671875 4.460938 -3.980469 4.085938 -5.742188 L 14.800781 -5.742188 Z M 7.800781 -10.6875 C 9.539062 -10.6875 10.714844 -9.5625 11.140625 -8.015625 L 4.195312 -8.015625 C 4.675781 -9.5625 6.039062 -10.6875 7.800781 -10.6875 Z M 7.800781 -10.6875 "/></g></g></g><g fill="#ffffff" fill-opacity="1"><g transform="translate(566.357858, 51.038964)"><g><path d="M 5.609375 -13.359375 L 0.535156 -13.359375 L 0.535156 -10.417969 L 2.136719 -10.417969 L 2.136719 0 L 5.609375 0 L 5.609375 -8.28125 L 5.878906 -8.28125 L 8.84375 0 L 12.210938 0 L 15.175781 -8.28125 L 15.441406 -8.28125 L 15.441406 0 L 20.519531 0 L 20.519531 -2.9375 L 18.914062 -2.9375 L 18.914062 -13.359375 L 13.839844 -13.359375 L 10.527344 -3.742188 L 7.214844 -13.359375 Z M 5.609375 -13.359375 "/></g></g></g><g fill="#ffffff" fill-opacity="1"><g transform="translate(587.409158, 51.038964)"><g><path d="M 3.207031 6.679688 L 3.6875 6.679688 C 8.042969 6.679688 8.628906 4.914062 9.75 1.601562 L 14.773438 -13.359375 L 11.035156 -13.359375 L 7.585938 -3.046875 L 3.875 -13.359375 L 0.132812 -13.359375 L 5.210938 0 L 6.546875 0 L 5.957031 1.789062 C 5.449219 3.3125 4.914062 3.742188 3.472656 3.742188 L 3.207031 3.742188 Z M 3.207031 6.679688 "/></g></g></g><g fill="#ffffff" fill-opacity="1"><g transform="translate(602.316031, 51.038964)"><g><path d="M 1.335938 -1.710938 C 1.335938 -0.613281 2.21875 0.265625 3.3125 0.265625 C 4.40625 0.265625 5.289062 -0.613281 5.289062 -1.710938 C 5.289062 -2.804688 4.40625 -3.6875 3.3125 -3.6875 C 2.21875 -3.6875 1.335938 -2.804688 1.335938 -1.710938 Z M 1.335938 -1.710938 "/></g></g></g></svg>