<svg width="322" height="127" viewBox="0 0 322 127" fill="none" xmlns="http://www.w3.org/2000/svg">
<path d="M2.50522 9.87167H3.90954V18.9998H10.9311C13.1781 18.9998 15.0271 17.7125 15.0271 15.4655C15.0271 14.1783 14.4419 13.1016 12.9206 12.6101C13.5759 12.2122 13.9738 11.276 13.9738 10.5738C13.9738 8.39714 12.1716 7.29709 9.99493 7.29709H2.50522V9.87167ZM10.6269 14.0846C11.4929 14.0846 11.9844 14.5059 11.9844 15.2549C11.9844 16.0039 11.4929 16.4252 10.6269 16.4252H6.95223V14.0846H10.6269ZM9.73747 9.87167C10.5332 9.87167 10.9311 10.3398 10.9311 11.0185C10.9311 11.6739 10.5567 12.1186 9.80768 12.1654H6.95223V9.87167H9.73747ZM25.3741 12.3994H28.2763V10.6909C27.2699 8.51416 25.023 7.06303 22.4484 7.06303C18.9844 7.06303 16.0821 9.68443 16.0821 13.1484C16.0821 16.6124 18.9844 19.2338 22.4484 19.2338C25.023 19.2338 27.2933 17.8061 28.2763 15.6294L25.3975 14.8102C24.8591 15.9103 23.7825 16.6592 22.4484 16.6592C20.4823 16.6592 19.1248 15.0911 19.1248 13.1484C19.1248 11.2058 20.4823 9.63762 22.4484 9.63762C23.7591 9.63762 24.8123 10.3632 25.3741 11.4632V12.3994ZM41.9344 7.29709H29.2019V9.87167H30.6063V18.9998H33.6489V9.87167H38.8917V16.4252V18.9998H43.3388V16.4252H41.9344V7.29709ZM47.3072 13.1484C47.3072 11.2058 48.6648 9.63762 50.6308 9.63762C52.5734 9.63762 53.9544 11.2058 53.9544 13.1484C53.9544 15.0911 52.5734 16.6592 50.6308 16.6592C48.6648 16.6592 47.3072 15.0911 47.3072 13.1484ZM44.2645 13.1484C44.2645 16.6124 47.1668 19.2338 50.6308 19.2338C54.0948 19.2338 57.0205 16.6124 56.9971 13.1484C56.9736 9.68443 54.0948 7.06303 50.6308 7.06303C47.1668 7.06303 44.2645 9.68443 44.2645 13.1484ZM62.4028 7.29709H57.9558V9.87167H59.3601V18.9998H62.4028V11.7441H62.6368L65.2348 18.9998H68.1839L70.7819 11.7441H71.0159V16.4252V18.9998H75.463V16.4252H74.0586V7.29709H71.0159H69.6116L66.7094 15.723L63.8071 7.29709H62.4028ZM86.091 7.29709V11.9782H80.8482V7.29709H76.4012V9.87167H77.8055V18.9998H80.8482V14.5527H86.091V16.4252V18.9998H90.538V16.4252H89.1337V7.29709H86.091ZM95.9108 7.29709H91.4638V9.87167H92.8681V18.9998H95.9108V17.8295L101.388 11.9782V16.4252V18.9998H105.835V16.4252H104.43V7.29709H101.388V8.46735L95.9108 14.3421V7.29709ZM106.778 9.87167H110.757V18.9998H115.672V16.4252H113.799V7.29709H110.757H106.778V9.87167ZM113.799 9.87167H117.778V7.29709H113.799V9.87167ZM130.75 13.1484C130.727 9.68443 128.082 7.06303 124.618 7.06303C121.154 7.06303 118.252 9.68443 118.252 13.1484C118.252 16.6124 121.154 19.2338 124.618 19.2338C127.755 19.2338 129.065 17.9231 130.235 16.5656L127.848 14.9974C127.45 15.6762 126.608 16.6592 124.618 16.6592C122.933 16.6592 121.693 15.5124 121.365 13.9676H130.75V13.1484ZM124.618 9.63762C126.14 9.63762 127.169 10.6206 127.544 11.9782H121.458C121.88 10.6206 123.073 9.63762 124.618 9.63762ZM131.528 22.9787H133.33L135.951 16.1911H132.3L131.528 22.9787ZM2.50522 34.8717H4.14359V43.9998H7.18628V34.8717H11.1652V37.891H13.9738V32.2971H2.50522V34.8717ZM16.632 34.8717H18.4576L18.4108 36.9313C18.3172 38.242 17.8257 39.857 17.1937 41.4252H15.6021V47.0425H18.6448V43.9998H26.7197V47.0425H29.7624V41.4252H27.7261V34.8717H27.7495V32.2971H16.632V34.8717ZM24.6834 41.4252H20.213C20.6811 40.5826 21.2194 39.1549 21.2662 36.9782L21.3131 34.8717H24.6834V41.4252ZM42.8432 38.1484C42.8198 34.6844 40.175 32.063 36.711 32.063C33.247 32.063 30.3448 34.6844 30.3448 38.1484C30.3448 41.6124 33.247 44.2338 36.711 44.2338C39.8473 44.2338 41.158 42.9231 42.3283 41.5656L39.941 39.9974C39.5431 40.6762 38.7005 41.6592 36.711 41.6592C35.0258 41.6592 33.7854 40.5124 33.4577 38.9676H42.8432V38.1484ZM36.711 34.6376C38.2324 34.6376 39.2622 35.6206 39.6367 36.9782H33.5513C33.9726 35.6206 35.1663 34.6376 36.711 34.6376ZM51.9673 34.8717H53.3716V43.9998H60.3932C62.6401 43.9998 64.4891 42.7125 64.4891 40.4655C64.4891 39.1783 63.904 38.1016 62.3827 37.6101C63.038 37.2122 63.4359 36.276 63.4359 35.5738C63.4359 33.3971 61.6337 32.2971 59.457 32.2971H51.9673V34.8717ZM60.0889 39.0846C60.9549 39.0846 61.4464 39.5059 61.4464 40.2549C61.4464 41.0039 60.9549 41.4252 60.0889 41.4252H56.4143V39.0846H60.0889ZM59.1995 34.8717C59.9953 34.8717 60.3932 35.3398 60.3932 36.0185C60.3932 36.6739 60.0187 37.1186 59.2697 37.1654H56.4143V34.8717H59.1995ZM66.9719 41.4252V43.9998H71.8871C74.6957 43.9998 76.8022 42.3614 76.8022 39.7868C76.8022 37.2122 74.6957 35.5738 71.8871 35.5738H70.0146V32.2971H66.9719V41.4252ZM77.9724 43.9998H82.4195V41.4252H81.0151V32.2971H77.9724V43.9998ZM70.0146 38.1484H71.8871C73.0105 38.1484 73.7595 38.6633 73.7595 39.7868C73.7595 40.9103 73.0105 41.4252 71.8871 41.4252H70.0146V38.1484ZM101.971 27.1947C101.269 27.6394 100.38 27.9437 98.1795 28.248C95.9794 28.5756 94.5517 29.2544 93.5452 30.2374C92.0473 31.712 91.5324 33.8184 91.5324 36.9782C91.5324 41.589 93.9899 44.2338 97.7816 44.2338C101.246 44.2338 104.054 41.8465 104.031 38.3825C104.007 35.1993 101.784 32.9992 98.6008 32.9992C96.8922 32.9992 95.5347 33.5376 94.5282 34.544H94.4346C94.5985 33.1865 94.9261 32.4843 95.5113 31.946C96.2134 31.2907 97.4539 31.1268 99.1391 30.8694C101.597 30.5183 102.299 30.2608 103.001 29.7927L101.971 27.1947ZM94.6921 38.6867C94.6921 36.9079 95.9326 35.6909 97.8518 35.6909C99.7476 35.6909 100.988 36.9079 100.988 38.6867C100.988 40.4421 99.7476 41.6592 97.8518 41.6592C95.9326 41.6592 94.6921 40.4421 94.6921 38.6867ZM106.423 41.4252V43.9998H111.338C114.146 43.9998 116.253 42.3614 116.253 39.7868C116.253 37.2122 114.146 35.5738 111.338 35.5738H109.465V32.2971H106.423V41.4252ZM117.423 43.9998H121.87V41.4252H120.466V32.2971H117.423V43.9998ZM109.465 38.1484H111.338C112.461 38.1484 113.21 38.6633 113.21 39.7868C113.21 40.9103 112.461 41.4252 111.338 41.4252H109.465V38.1484ZM123.854 34.8717H125.656L125.422 37.8676C125.188 40.6996 124.954 41.1911 123.034 41.1911V43.9998C123.479 44.1402 123.783 44.2338 124.345 44.2338C126.452 44.2338 128.02 42.8997 128.371 37.9144L128.582 34.8717H131.765V41.4252V43.9998H136.212V41.4252H134.807V32.2971H123.854V34.8717ZM141.487 32.2971H137.04V34.8717H138.445V43.9998H141.487V42.8295L146.964 36.9782V41.4252V43.9998H151.411V41.4252H150.007V32.2971H146.964V33.4674L141.487 39.3421V32.2971ZM14.5356 52.5926V54.4884L7.18628 63.2654V52.5926H2.73927V55.1672H4.14359V68.9998H7.18628V67.1273L14.5356 58.3503V66.4252V68.9998H18.9826V66.4252H17.5783V52.5926H14.5356ZM32.7804 57.2971H28.3334V59.8717H29.7377V68.9998H32.7804V64.0846H34.9805L37.9062 68.9998H41.2999L37.5551 62.9144L41.0659 57.2971H37.6721L35.1209 61.51H32.7804V57.2971ZM41.5217 63.1484C41.5217 66.6124 43.7218 69.2338 47.1858 69.2338C48.988 69.2338 50.3455 68.5316 51.2115 67.338V68.9998H55.6586V66.4252H54.2542V57.2971H51.2115V59.0057C50.3455 57.7886 49.0114 57.063 47.1858 57.063C43.7218 57.063 41.5217 59.6844 41.5217 63.1484ZM44.5644 63.1484C44.5644 61.2058 45.9219 59.6376 47.888 59.6376C49.8306 59.6376 51.2115 61.2058 51.2115 63.1484V63.2889C51.1413 65.1613 49.7838 66.6592 47.888 66.6592C45.9219 66.6592 44.5644 65.0911 44.5644 63.1484ZM61.0314 57.2971H56.5843V59.8717H57.9887V68.9998H61.0314V64.0846H63.2315L66.1571 68.9998H69.5509L65.8061 62.9144L69.3169 57.2971H65.9231L63.3719 61.51H61.0314V57.2971ZM72.8154 63.1484C72.8154 61.2058 74.1729 59.6376 76.139 59.6376C78.0816 59.6376 79.4625 61.2058 79.4625 63.1484C79.4625 65.0911 78.0816 66.6592 76.139 66.6592C74.1729 66.6592 72.8154 65.0911 72.8154 63.1484ZM69.7727 63.1484C69.7727 66.6124 72.675 69.2338 76.139 69.2338C79.603 69.2338 82.5286 66.6124 82.5052 63.1484C82.4818 59.6844 79.603 57.063 76.139 57.063C72.675 57.063 69.7727 59.6844 69.7727 63.1484ZM87.9109 57.2971H83.4639V59.8717H84.8682V68.9998H87.9109V67.8295L93.3878 61.9782V66.4252V68.9998H97.8348V66.4252H96.4305V57.2971H93.3878V58.4674L87.9109 64.3421V57.2971ZM86.7407 52.616C86.7407 55.4247 88.379 56.3609 90.6494 56.3609C92.9197 56.3609 94.558 55.4247 94.558 52.616H92.2877C92.2877 53.7629 91.7494 54.231 90.6494 54.2544C89.5493 54.231 89.011 53.7629 89.011 52.616H86.7407ZM119.693 57.2971H106.961V59.8717H108.365V68.9998H111.408V59.8717H116.651V66.4252V68.9998H121.098V66.4252H119.693V57.2971ZM124.364 74.8511H124.785C128.6 74.8511 129.115 73.3063 130.098 70.4041L134.498 57.2971H131.222L128.202 66.3315L124.949 57.2971H121.672L126.119 68.9998H127.29L126.775 70.5679C126.33 71.902 125.862 72.2765 124.598 72.2765H124.364V74.8511ZM135.075 59.8717H139.053V68.9998H143.969V66.4252H142.096V57.2971H139.053H135.075V59.8717ZM142.096 59.8717H146.075V57.2971H142.096V59.8717ZM147.976 68.9998H153.594C156.402 68.9998 158.509 67.3614 158.509 64.7868C158.509 62.2122 156.402 60.5738 153.594 60.5738H151.019V57.2971H147.976V68.9998ZM151.019 63.1484H153.594C154.717 63.1484 155.466 63.6633 155.466 64.7868C155.466 65.9103 154.717 66.4252 153.594 66.4252H151.019V63.1484ZM180.355 57.2971H167.623V59.8717H169.027V68.9998H172.07V59.8717H177.312V66.4252V68.9998H181.759V66.4252H180.355V57.2971ZM191.462 56.946C189.543 56.946 188.092 57.695 187.132 58.9121V57.2971H182.685V59.8717H184.09V74.8511H187.132V67.3848C188.092 68.6253 189.543 69.3508 191.462 69.3508C194.926 69.3508 197.079 66.6826 197.079 63.1484C197.079 59.6142 194.926 56.946 191.462 56.946ZM190.526 66.6826C188.56 66.6826 187.132 65.1145 187.132 63.1484V63.008C187.202 61.1122 188.607 59.6142 190.526 59.6142C192.492 59.6142 193.92 61.1824 193.92 63.1484C193.92 65.1145 192.492 66.6826 190.526 66.6826ZM201.065 63.1484C201.065 61.2058 202.422 59.6376 204.388 59.6376C206.331 59.6376 207.712 61.2058 207.712 63.1484C207.712 65.0911 206.331 66.6592 204.388 66.6592C202.422 66.6592 201.065 65.0911 201.065 63.1484ZM198.022 63.1484C198.022 66.6124 200.924 69.2338 204.388 69.2338C207.852 69.2338 210.778 66.6124 210.755 63.1484C210.731 59.6844 207.852 57.063 204.388 57.063C200.924 57.063 198.022 59.6844 198.022 63.1484ZM213.118 68.9998H229.267V66.4252H227.863V57.2971H224.82V66.4252H222.012V57.2971H218.969V66.4252H216.16V57.2971H211.713V59.8717H213.118V68.9998ZM231.258 59.8717H233.06L232.826 62.8676C232.592 65.6996 232.358 66.1911 230.438 66.1911V68.9998C230.883 69.1402 231.187 69.2338 231.749 69.2338C233.856 69.2338 235.424 67.8997 235.775 62.9144L235.986 59.8717H239.169V66.4252V68.9998H243.616V66.4252H242.211V57.2971H231.258V59.8717ZM248.891 57.2971H244.444V59.8717H245.849V68.9998H248.891V67.8295L254.368 61.9782V66.4252V68.9998H258.815V66.4252H257.411V57.2971H254.368V58.4674L248.891 64.3421V57.2971ZM6.95223 82.2971H2.50522V84.8717H3.90954V93.9998H6.95223V89.0846H9.15233L12.078 93.9998H15.4718L11.7269 87.9144L15.2377 82.2971H11.8439L9.29276 86.51H6.95223V82.2971ZM33.8768 87.3994H36.779V85.6909C35.7726 83.5142 33.5257 82.063 30.9511 82.063C27.4871 82.063 24.5849 84.6844 24.5849 88.1484C24.5849 91.6124 27.4871 94.2338 30.9511 94.2338C33.5257 94.2338 35.796 92.8061 36.779 90.6294L33.9002 89.8102C33.3619 90.9103 32.2852 91.6592 30.9511 91.6592C28.9851 91.6592 27.6276 90.0911 27.6276 88.1484C27.6276 86.2058 28.9851 84.6376 30.9511 84.6376C32.2618 84.6376 33.3151 85.3632 33.8768 86.4632V87.3994ZM50.4317 88.1484C50.4083 84.6844 47.7635 82.063 44.2995 82.063C40.8355 82.063 37.9332 84.6844 37.9332 88.1484C37.9332 91.6124 40.8355 94.2338 44.2995 94.2338C47.4358 94.2338 48.7465 92.9231 49.9168 91.5656L47.5294 89.9974C47.1315 90.6762 46.2889 91.6592 44.2995 91.6592C42.6143 91.6592 41.3738 90.5124 41.0461 88.9676H50.4317V88.1484ZM44.2995 84.6376C45.8208 84.6376 46.8507 85.6206 47.2251 86.9782H41.1398C41.561 85.6206 42.7547 84.6376 44.2995 84.6376ZM61.8118 77.1947C61.1096 77.6394 60.2202 77.9437 58.0201 78.248C55.82 78.5756 54.3923 79.2544 53.3859 80.2374C51.8879 81.712 51.373 83.8184 51.373 86.9782C51.373 91.589 53.8306 94.2338 57.6222 94.2338C61.0862 94.2338 63.8949 91.8465 63.8715 88.3825C63.8481 85.1993 61.6245 82.9992 58.4414 82.9992C56.7328 82.9992 55.3753 83.5376 54.3689 84.544H54.2753C54.4391 83.1865 54.7668 82.4843 55.3519 81.946C56.0541 81.2907 57.2946 81.1268 58.9797 80.8694C61.4373 80.5183 62.1395 80.2608 62.8416 79.7927L61.8118 77.1947ZM54.5327 88.6867C54.5327 86.9079 55.7732 85.6909 57.6924 85.6909C59.5883 85.6909 60.8288 86.9079 60.8288 88.6867C60.8288 90.4421 59.5883 91.6592 57.6924 91.6592C55.7732 91.6592 54.5327 90.4421 54.5327 88.6867ZM77.3341 88.1484C77.3107 84.6844 74.6659 82.063 71.2019 82.063C67.7379 82.063 64.8356 84.6844 64.8356 88.1484C64.8356 91.6124 67.7379 94.2338 71.2019 94.2338C74.3382 94.2338 75.6489 92.9231 76.8192 91.5656L74.4318 89.9974C74.0339 90.6762 73.1914 91.6592 71.2019 91.6592C69.5167 91.6592 68.2762 90.5124 67.9486 88.9676H77.3341V88.1484ZM71.2019 84.6376C72.7232 84.6376 73.7531 85.6206 74.1276 86.9782H68.0422C68.4635 85.6206 69.6571 84.6376 71.2019 84.6376ZM95.7501 87.3994H98.6523V85.6909C97.6459 83.5142 95.399 82.063 92.8244 82.063C89.3604 82.063 86.4582 84.6844 86.4582 88.1484C86.4582 91.6124 89.3604 94.2338 92.8244 94.2338C95.399 94.2338 97.6693 92.8061 98.6523 90.6294L95.7735 89.8102C95.2352 90.9103 94.1585 91.6592 92.8244 91.6592C90.8584 91.6592 89.5009 90.0911 89.5009 88.1484C89.5009 86.2058 90.8584 84.6376 92.8244 84.6376C94.1351 84.6376 95.1884 85.3632 95.7501 86.4632V87.3994ZM112.305 88.1484C112.282 84.6844 109.637 82.063 106.173 82.063C102.709 82.063 99.8065 84.6844 99.8065 88.1484C99.8065 91.6124 102.709 94.2338 106.173 94.2338C109.309 94.2338 110.62 92.9231 111.79 91.5656L109.403 89.9974C109.005 90.6762 108.162 91.6592 106.173 91.6592C104.488 91.6592 103.247 90.5124 102.919 88.9676H112.305V88.1484ZM106.173 84.6376C107.694 84.6376 108.724 85.6206 109.098 86.9782H103.013C103.434 85.6206 104.628 84.6376 106.173 84.6376ZM113.246 84.8717H114.885V93.9998H117.927V84.8717H121.906V87.891H124.715V82.2971H113.246V84.8717ZM129.386 88.1484C129.386 86.2058 130.743 84.6376 132.709 84.6376C134.652 84.6376 136.033 86.2058 136.033 88.1484C136.033 90.0911 134.652 91.6592 132.709 91.6592C130.743 91.6592 129.386 90.0911 129.386 88.1484ZM126.343 88.1484C126.343 91.6124 129.245 94.2338 132.709 94.2338C136.173 94.2338 139.099 91.6124 139.076 88.1484C139.052 84.6844 136.173 82.063 132.709 82.063C129.245 82.063 126.343 84.6844 126.343 88.1484ZM141.064 84.8717H142.89L142.843 86.9313C142.749 88.242 142.258 89.857 141.626 91.4252H140.034V97.0425H143.077V93.9998H151.152V97.0425H154.195V91.4252H152.158V84.8717H152.182V82.2971H141.064V84.8717ZM149.116 91.4252H144.645C145.113 90.5826 145.652 89.1549 145.699 86.9782L145.745 84.8717H149.116V91.4252ZM164.467 82.2971V86.9782H159.224V82.2971H154.777V84.8717H156.181V93.9998H159.224V89.5527H164.467V91.4252V93.9998H168.914V91.4252H167.51V82.2971H164.467ZM182.9 91.4252H181.261V82.2971H175.176C172.367 82.2971 170.261 83.9355 170.261 86.51C170.261 88.0782 171.033 89.2953 172.274 90.0208L169.84 93.9998H173.421L175.41 90.723H178.219V93.9998H182.9V91.4252ZM178.219 88.1484H175.176C174.053 88.1484 173.304 87.6335 173.304 86.51C173.304 85.3866 174.053 84.8717 175.176 84.8717H178.219V88.1484ZM185.232 93.9998H201.382V91.4252H199.978V82.2971H196.935V91.4252H194.126V82.2971H191.084V91.4252H188.275V82.2971H183.828V84.8717H185.232V93.9998ZM212.009 82.2971V86.9782H206.766V82.2971H202.319V84.8717H203.723V93.9998H206.766V89.5527H212.009V91.4252V93.9998H216.456V91.4252H215.052V82.2971H212.009ZM229.88 88.1484C229.857 84.6844 227.212 82.063 223.748 82.063C220.284 82.063 217.382 84.6844 217.382 88.1484C217.382 91.6124 220.284 94.2338 223.748 94.2338C226.884 94.2338 228.195 92.9231 229.365 91.5656L226.978 89.9974C226.58 90.6762 225.737 91.6592 223.748 91.6592C222.063 91.6592 220.822 90.5124 220.495 88.9676H229.88V88.1484ZM223.748 84.6376C225.269 84.6376 226.299 85.6206 226.674 86.9782H220.588C221.01 85.6206 222.203 84.6376 223.748 84.6376ZM235.269 82.2971H230.822V84.8717H232.226V93.9998H235.269V86.7441H235.503L238.101 93.9998H241.05L243.648 86.7441H243.882V91.4252V93.9998H248.329V91.4252H246.924V82.2971H243.882H242.477L239.575 90.723L236.673 82.2971H235.269ZM251.608 99.8511H252.029C255.844 99.8511 256.359 98.3063 257.342 95.4041L261.742 82.2971H258.465L255.446 91.3315L252.193 82.2971H248.916L253.363 93.9998H254.533L254.018 95.5679C253.574 96.902 253.105 97.2765 251.842 97.2765H251.608V99.8511ZM263.02 92.5018C263.02 93.4614 263.793 94.2338 264.752 94.2338C265.712 94.2338 266.484 93.4614 266.484 92.5018C266.484 91.5422 265.712 90.7698 264.752 90.7698C263.793 90.7698 263.02 91.5422 263.02 92.5018Z" fill="white"/>
<path d="M169.197 41.4252H166.622V27.616H160.771V30.1906H163.58V41.4252H160.771V43.9998H169.197V41.4252ZM170.353 40.5124C171.032 42.7125 173.232 44.2338 175.994 44.2338C179.317 44.2338 181.845 41.9401 181.845 38.8506C181.845 35.7611 179.528 33.4674 176.228 33.4674C175.526 33.4674 174.87 33.5844 174.238 33.795L174.706 29.9566H180.885V27.382H172.132L171.781 29.9566L171.079 36.276L173.887 36.8845C174.519 36.3696 175.291 36.0419 176.228 36.0419C177.796 36.0419 178.802 37.142 178.802 38.8506C178.802 40.489 177.632 41.6592 175.994 41.6592C174.472 41.6592 173.091 40.7698 172.764 39.3187L170.353 40.5124ZM192.241 34.8717H194.043L193.809 37.8676C193.575 40.6996 193.341 41.1911 191.422 41.1911V43.9998C191.867 44.1402 192.171 44.2338 192.733 44.2338C194.839 44.2338 196.407 42.8997 196.758 37.9144L196.969 34.8717H200.152V41.4252V43.9998H204.599V41.4252H203.195V32.2971H192.241V34.8717ZM217.926 38.1484C217.903 34.6844 215.258 32.063 211.794 32.063C208.33 32.063 205.428 34.6844 205.428 38.1484C205.428 41.6124 208.33 44.2338 211.794 44.2338C214.93 44.2338 216.241 42.9231 217.411 41.5656L215.024 39.9974C214.626 40.6762 213.783 41.6592 211.794 41.6592C210.109 41.6592 208.868 40.5124 208.541 38.9676H217.926V38.1484ZM211.794 34.6376C213.315 34.6376 214.345 35.6206 214.72 36.9782H208.634C209.056 35.6206 210.249 34.6376 211.794 34.6376ZM218.867 34.8717H222.846V43.9998H227.762V41.4252H225.889V32.2971H222.846H218.867V34.8717ZM225.889 34.8717H229.868V32.2971H225.889V34.8717ZM248.214 32.2971V36.9782H242.971V32.2971H238.524V34.8717H239.929V43.9998H242.971V39.5527H248.214V41.4252V43.9998H252.661V41.4252H251.257V32.2971H248.214ZM253.587 38.1484C253.587 41.6124 255.787 44.2338 259.251 44.2338C261.053 44.2338 262.411 43.5316 263.277 42.338V43.9998H267.724V41.4252H266.319V32.2971H263.277V34.0057C262.411 32.7886 261.077 32.063 259.251 32.063C255.787 32.063 253.587 34.6844 253.587 38.1484ZM256.63 38.1484C256.63 36.2058 257.987 34.6376 259.953 34.6376C261.896 34.6376 263.277 36.2058 263.277 38.1484V38.2889C263.207 40.1613 261.849 41.6592 259.953 41.6592C257.987 41.6592 256.63 40.0911 256.63 38.1484ZM274.126 41.8933C272.839 41.8933 271.833 41.1209 271.341 39.8804L268.767 40.6294C269.75 42.8061 271.692 44.2338 274.501 44.2338C277.45 44.2338 279.697 42.8529 279.697 40.4655C279.697 39.4123 278.971 38.1484 277.356 37.891C278.69 37.6101 279.112 36.51 279.112 35.5738C279.112 33.3971 276.841 32.063 274.197 32.063C271.739 32.063 270.054 33.2333 269.141 34.9887V36.9782H271.716V35.5972C272.184 34.9419 272.956 34.4036 273.939 34.4036C275.414 34.4036 276.069 35.0121 276.069 35.8079C276.069 36.4632 275.226 37.1654 273.963 37.1654H272.956V39.0846H274.36C275.788 39.0846 276.654 39.5527 276.654 40.3719C276.654 41.4252 275.601 41.8933 274.126 41.8933ZM281.198 38.1484C281.198 41.6124 283.398 44.2338 286.862 44.2338C288.664 44.2338 290.022 43.5316 290.888 42.338V43.9998H295.335V41.4252H293.93V32.2971H290.888V34.0057C290.022 32.7886 288.688 32.063 286.862 32.063C283.398 32.063 281.198 34.6844 281.198 38.1484ZM284.241 38.1484C284.241 36.2058 285.598 34.6376 287.564 34.6376C289.507 34.6376 290.888 36.2058 290.888 38.1484V38.2889C290.817 40.1613 289.46 41.6592 287.564 41.6592C285.598 41.6592 284.241 40.0911 284.241 38.1484ZM297.29 34.8717H299.116L299.069 36.9313C298.976 38.242 298.484 39.857 297.852 41.4252H296.261V47.0425H299.303V43.9998H307.378V47.0425H310.421V41.4252H308.384V34.8717H308.408V32.2971H297.29V34.8717ZM305.342 41.4252H300.871C301.339 40.5826 301.878 39.1549 301.925 36.9782L301.971 34.8717H305.342V41.4252ZM311.705 42.5018C311.705 43.4614 312.478 44.2338 313.437 44.2338C314.397 44.2338 315.169 43.4614 315.169 42.5018C315.169 41.5422 314.397 40.7698 313.437 40.7698C312.478 40.7698 311.705 41.5422 311.705 42.5018Z" fill="#FFCA63"/>
<path d="M2.03879 116.85C3.88268 114.638 8.83198 113.002 12.0678 112.022C15.8478 110.876 20.3982 110.403 24.4907 110.384C27.5499 110.37 30.5014 110.134 33.0608 111.55C35.9725 113.16 36.8028 116.807 38.1513 119.073C39.2214 120.87 42.0591 122.242 44.1521 123.691C47.3333 125.893 53.5004 123.355 56.666 122.448C68.2943 119.115 74.4578 112.908 86.0448 109.536C90.3426 108.285 96.6919 107.021 100.379 109.573C103.647 111.835 108.843 121.235 112.594 123.252C114.548 124.303 118.133 123.808 120.358 123.798C126.873 123.768 133.525 119.537 138.944 117.433C146.39 114.542 156.409 109.701 165.558 110.511C170.379 110.938 174.869 115.259 177.339 117.919C179.995 120.781 184.26 121.515 188.98 120.776C192.948 120.154 196.451 117.792 200.202 116.69C202.802 115.926 205.908 115.513 208.37 114.573C210.928 113.596 215.328 112.878 218.265 112.864C222.305 112.845 224.36 115.738 226.852 117.709C228.674 119.151 233.486 122.772 236.511 122.882C240.642 123.033 244.742 122.753 248.279 121.144C251.891 119.501 256.198 118.357 259.498 116.414" stroke="#FFCA63" stroke-width="3.90089" stroke-linecap="round"/>
</svg>
