<svg width="201" height="57" viewBox="0 0 201 57" fill="none" xmlns="http://www.w3.org/2000/svg">
<path d="M1.75365 55.5515C6.66323 55.361 15.2945 54.0955 21.0336 53.4601C38.1866 51.5613 56.7915 50.4148 74.3195 49.7028C103.373 48.5227 132.486 49.5896 161.546 49.601C172.126 49.6051 203.866 49.6175 193.286 49.6134" stroke="#FFCA63" stroke-width="2.41149" stroke-linecap="round"/>
<path d="M11.3015 27.7229C9.07089 27.7229 7.32693 26.3845 6.47522 24.235L2.01393 25.5328C3.71733 29.3046 7.08358 31.7786 11.9504 31.7786C17.0607 31.7786 20.9541 29.3857 20.9541 25.2489C20.9541 23.4238 19.6969 21.2337 16.8984 20.7876C19.2102 20.3009 19.9402 18.3947 19.9402 16.7724C19.9402 13.0006 16.0062 10.6889 11.4232 10.6889C7.1647 10.6889 4.24458 12.7167 2.66285 15.7585V19.2059H7.12414V16.813C7.93528 15.6774 9.27367 14.7446 10.9771 14.7446C13.5322 14.7446 14.6678 15.7991 14.6678 17.178C14.6678 18.3136 13.2077 19.5303 11.0176 19.5303H9.27367V22.856H11.7071C14.1811 22.856 15.6817 23.6672 15.6817 25.0867C15.6817 26.9118 13.8566 27.7229 11.3015 27.7229ZM23.5552 21.2337C23.5552 27.2362 27.3676 31.7786 33.37 31.7786C36.4929 31.7786 38.8453 30.5619 40.3459 28.4935V31.373H48.0518V26.9118H45.6183V11.0944H40.3459V14.0551C38.8453 11.9461 36.5335 10.6889 33.37 10.6889C27.3676 10.6889 23.5552 15.2313 23.5552 21.2337ZM28.8276 21.2337C28.8276 17.8675 31.18 15.1502 34.5868 15.1502C37.953 15.1502 40.3459 17.8675 40.3459 21.2337V21.4771C40.2242 24.7217 37.8719 27.3173 34.5868 27.3173C31.18 27.3173 28.8276 24.6 28.8276 21.2337ZM78.8413 26.9118H74.38V2.983H64.2407V7.44429H69.1076V26.9118H64.2407V31.373H78.8413V26.9118ZM80.8445 25.33C82.0206 29.1424 85.833 31.7786 90.6188 31.7786C96.3779 31.7786 100.758 27.804 100.758 22.4505C100.758 17.0969 96.7429 13.1223 91.0243 13.1223C89.8076 13.1223 88.672 13.3251 87.577 13.6901L88.3881 7.03872H99.0952V2.57742H83.9268L83.3185 7.03872L82.1018 17.9892L86.9686 19.0437C88.0637 18.1514 89.4021 17.5836 91.0243 17.5836C93.7417 17.5836 95.4856 19.4898 95.4856 22.4505C95.4856 25.2895 93.4578 27.3173 90.6188 27.3173C87.9825 27.3173 85.5897 25.7762 85.0219 23.2616L80.8445 25.33ZM118.773 15.5557H121.896L121.49 20.7471C121.085 25.6545 120.679 26.5062 117.353 26.5062V31.373C118.124 31.6164 118.651 31.7786 119.624 31.7786C123.275 31.7786 125.992 29.4669 126.6 20.8282L126.965 15.5557H132.481V26.9118V31.373H140.187V26.9118H137.754V11.0944H118.773V15.5557ZM163.28 21.2337C163.24 15.2313 158.657 10.6889 152.654 10.6889C146.652 10.6889 141.623 15.2313 141.623 21.2337C141.623 27.2362 146.652 31.7786 152.654 31.7786C158.089 31.7786 160.36 29.5074 162.388 27.1551L158.251 24.4378C157.562 25.6139 156.102 27.3173 152.654 27.3173C149.734 27.3173 147.585 25.33 147.017 22.6532H163.28V21.2337ZM152.654 15.1502C155.29 15.1502 157.075 16.8536 157.724 19.2059H147.179C147.909 16.8536 149.977 15.1502 152.654 15.1502ZM164.911 15.5557H171.806V31.373H180.323V26.9118H177.079V11.0944H171.806H164.911V15.5557ZM177.079 15.5557H183.973V11.0944H177.079V15.5557Z" fill="#653C7E"/>
</svg>
