<svg width="410" height="91" viewBox="0 0 410 91" fill="none" xmlns="http://www.w3.org/2000/svg">
<path d="M108.264 25.2973V29.1531H112.438V25.2973C118.032 25.2973 122.622 21.3435 122.622 16.3003C122.622 11.2572 118.032 7.30339 112.438 7.30339V2.45605H106.33V5.99363H108.252V7.31563C102.658 7.31563 98.0674 11.2694 98.0674 16.3126C98.0674 21.3558 102.658 25.3095 108.252 25.3095L108.264 25.2973ZM118.326 16.3003C118.326 19.1892 115.792 21.6373 112.45 21.6373V10.9756C115.792 10.9756 118.326 13.4115 118.326 16.3126V16.3003ZM108.264 10.9634V21.6251C104.922 21.6251 102.388 19.1892 102.388 16.2881C102.388 13.387 104.922 10.9511 108.264 10.9511V10.9634Z" fill="white"/>
<path d="M132.957 12.7749C128.207 12.7749 124.217 16.3737 124.217 21.1231C124.217 25.8725 128.195 29.4713 132.957 29.4713C137.718 29.4713 141.733 25.8725 141.697 21.1231C141.66 16.3737 137.706 12.7749 132.957 12.7749ZM132.957 25.9459C130.264 25.9459 128.391 23.7916 128.391 21.1231C128.391 18.4546 130.251 16.3002 132.957 16.3002C135.662 16.3002 137.522 18.4546 137.522 21.1231C137.522 23.7916 135.625 25.9459 132.957 25.9459Z" fill="white"/>
<path d="M144.766 29.1531H148.953V23.0572H156.138V25.6278V29.1531H162.246V25.6278H160.324V13.0933H156.138V19.5197H148.953V16.6308V13.0933H142.844V16.6308H144.766V29.1531Z" fill="white"/>
<path d="M167.866 29.1531H178.785V32.6907H182.959V25.6278H179.996V16.6308H180.033V13.0933H164.928V16.6308H167.45L167.364 19.4584C167.242 21.2578 166.556 23.4734 165.699 25.6278H163.68V32.6907H167.854V29.1531H167.866ZM171.465 19.5197L171.55 16.6308H175.835V25.6278H170.02C170.657 24.4772 171.403 22.5064 171.465 19.5197Z" fill="white"/>
<path d="M110.872 49.7059L117.934 38.7749H113.124L108.019 46.6702L102.903 38.7749H102.193H98.08H97.9943V42.3125H100.369L105.155 49.7059L97.7617 61.2612H102.585L108.019 52.7661L113.442 61.2612H114.115H118.265H118.326V57.7358H116L110.872 49.7059Z" fill="white"/>
<path d="M136.465 45.2006H132.291V47H131.863C130.688 45.678 128.999 44.8823 126.771 44.8823C122.021 44.8823 118.998 48.4811 118.998 53.2305C118.998 57.9799 122.021 61.5787 126.771 61.5787C128.925 61.5787 130.59 60.832 131.777 59.5835H132.304V61.2482H138.412V57.7106H136.49V45.1761L136.465 45.2006ZM123.16 53.2305C123.16 50.562 125.02 48.4077 127.726 48.4077C130.431 48.4077 132.291 50.562 132.291 53.2305C132.291 55.899 130.394 58.0534 127.726 58.0534C125.057 58.0534 123.16 55.899 123.16 53.2305Z" fill="white"/>
<path d="M149.05 45.5191C146.957 45.5191 145.292 46.1679 143.884 47.3797C144.558 44.2094 146.173 43.0098 148.817 42.2753C151.767 41.4675 154.216 41.2471 156.296 37.9054L153.469 35.5552C152.502 36.6446 150.898 37.7095 147.495 38.6766C142.746 40.023 139.661 43.3403 139.661 51.6273C139.661 57.307 143.162 61.5912 148.56 61.5912C153.31 61.5912 157.166 58.3107 157.141 53.5613C157.104 48.8119 153.799 45.5314 149.05 45.5314V45.5191ZM148.573 58.0537C145.39 58.0537 143.848 55.2628 143.848 51.6273C144.582 50.342 146.1 49.0567 148.413 49.0567C151.082 49.0567 152.979 50.8928 152.979 53.5491C152.979 56.2053 151.241 58.0414 148.573 58.0414V58.0537Z" fill="white"/>
<path d="M167.669 44.8828C162.919 44.8828 158.929 48.4816 158.929 53.231C158.929 57.9805 162.907 61.5792 167.669 61.5792C171.977 61.5792 173.777 59.7798 175.38 57.9192L172.1 55.7649C171.549 56.6952 170.398 58.0416 167.669 58.0416C165.355 58.0416 163.654 56.4748 163.201 54.3449H176.078V53.2188C176.041 48.4694 172.418 44.8706 167.656 44.8706L167.669 44.8828ZM163.335 51.6275C163.911 49.7669 165.551 48.4082 167.669 48.4082C169.786 48.4082 171.169 49.7547 171.684 51.6275H163.335Z" fill="white"/>
<path d="M194.195 45.2014H190.021V51.6278H182.824V48.739V45.2014H176.716V48.739H178.65V61.2613H182.824V55.1654H190.021V57.7359V61.2613H196.13V57.7359H194.195V45.2014Z" fill="white"/>
<path d="M205.968 44.8829C201.219 44.8829 197.229 48.4817 197.229 53.2311C197.229 57.9805 201.219 61.5793 205.968 61.5793C209.506 61.5793 212.615 59.6207 213.974 56.634L210.02 55.5078C209.286 57.0135 207.805 58.0417 205.968 58.0417C203.275 58.0417 201.403 55.8873 201.403 53.2188C201.403 50.5503 203.263 48.396 205.968 48.396C207.633 48.396 209.004 49.2528 209.788 50.5626V52.5089H213.962V49.8404C212.578 46.8536 209.494 44.8584 205.956 44.8584L205.968 44.8829Z" fill="white"/>
<path d="M232.95 45.2012H228.458L224.835 50.991H221.579V48.7387V45.2012H215.471V48.7387H217.405V61.261H221.579V54.5164H224.627L228.776 61.261H233.269L228.128 52.9128L232.95 45.2012Z" fill="white"/>
<path d="M241.993 44.8823C237.243 44.8823 233.253 48.4811 233.253 53.2305C233.253 57.9799 237.243 61.5787 241.993 61.5787C246.742 61.5787 250.769 57.9799 250.733 53.2305C250.696 48.4811 246.742 44.8823 241.993 44.8823ZM241.993 58.0534C239.3 58.0534 237.427 55.899 237.427 53.2305C237.427 50.562 239.288 48.4077 241.993 48.4077C244.698 48.4077 246.559 50.562 246.559 53.2305C246.559 55.899 244.661 58.0534 241.993 58.0534Z" fill="white"/>
<path d="M252.045 48.739H254.297V61.2613H258.471V48.739H263.931V52.8764H267.786V48.739V45.2014H252.045V48.739Z" fill="white"/>
<path d="M278.118 44.8823C273.369 44.8823 269.378 48.4811 269.378 53.2305C269.378 57.9799 273.356 61.5787 278.118 61.5787C282.88 61.5787 286.895 57.9799 286.858 53.2305C286.821 48.4811 282.867 44.8823 278.118 44.8823ZM278.118 58.0534C275.425 58.0534 273.552 55.899 273.552 53.2305C273.552 50.562 275.413 48.4077 278.118 48.4077C280.823 48.4077 282.684 50.562 282.684 53.2305C282.684 55.899 280.786 58.0534 278.118 58.0534Z" fill="white"/>
<path d="M81.4111 27.2199L74.5685 11.0253C74.4339 10.7193 74.189 10.4623 73.883 10.3276L51.4335 0.118842C51.2132 0.00867501 50.9561 -0.0158065 50.7113 0.00867501L23.9041 3.24023C23.6348 3.27695 23.3777 3.38712 23.1696 3.57073L3.04581 21.6258C2.801 21.8462 2.64187 22.1399 2.60515 22.4704L0.0101083 44.0509C-0.0510954 44.5405 0.169238 45.0301 0.573183 45.3117L28.8371 65.1907C29.0696 65.3498 29.3389 65.4355 29.6082 65.4355C29.7184 65.4355 29.8286 65.4232 29.9387 65.3988C30.3182 65.3008 30.6365 65.0438 30.8201 64.6888L41.4573 43.4266L57.1622 43.9285L71.643 49.1186C72.2061 49.3266 72.8426 49.1186 73.1976 48.6412L80.5542 38.3834C80.7011 38.1753 80.7868 37.9428 80.799 37.6979L81.5213 27.8441C81.5335 27.636 81.4968 27.4157 81.4233 27.2199H81.4111ZM78.6202 27.5381L67.8239 29.5578C67.6892 29.2763 67.4811 29.0437 67.2241 28.8601C67.2118 28.8356 67.1996 28.8112 67.1751 28.7989C67.1506 28.7867 67.1261 28.7744 67.0894 28.7744C67.1139 28.7744 67.1506 28.7867 67.1751 28.7989L72.6834 13.5225L78.608 27.5381H78.6202ZM66.257 28.4684C66.257 28.4684 66.257 28.4684 66.2448 28.4684C66.1836 28.4684 66.1346 28.4317 66.0734 28.4317C65.7797 28.4317 65.5104 28.5051 65.2533 28.6275L55.2159 16.7663C55.424 16.4847 55.5586 16.1542 55.5831 15.7748L71.9368 12.7513L66.2693 28.4562L66.257 28.4684ZM54.8242 31.7979C54.8242 31.5531 54.7752 31.3328 54.6895 31.1124C54.6895 31.1124 54.6895 31.1124 54.6895 31.1002C54.4814 30.5616 54.0408 30.1576 53.4777 29.974L54.0285 17.5374C54.1877 17.5007 54.3468 17.4762 54.4814 17.415L64.5189 29.2641C64.3475 29.5089 64.2251 29.7782 64.1761 30.0842L54.6895 31.1124C54.7752 31.3205 54.8242 31.5531 54.8242 31.7979ZM22.3984 21.0872C22.4964 20.9648 22.5821 20.8424 22.6555 20.7078L39.8782 24.4045C39.8782 24.5636 39.9272 24.7105 39.9762 24.8574L30.6732 30.4269C30.3304 30.0842 29.8531 29.8761 29.3389 29.8761C29.1064 29.8761 28.886 29.9251 28.6779 29.9985C28.6779 29.9985 28.6657 30.0108 28.6535 30.023C28.6535 30.023 28.6657 30.0107 28.6779 29.9985L22.4107 21.075L22.3984 21.0872ZM11.7735 33.7931C12.0305 33.9278 12.3243 34.0135 12.6303 34.0135L14.65 41.8231C14.9316 41.6639 15.2498 41.566 15.5803 41.566C15.2376 41.566 14.9193 41.6639 14.65 41.8231C14.1971 42.0801 13.8544 42.5086 13.732 43.0227L3.74354 43.1696L11.7857 33.8054L11.7735 33.7931ZM13.5729 33.7319C14.038 33.4749 14.3685 33.0342 14.4909 32.5079L27.4661 32.3243C27.5028 32.4344 27.5151 32.5568 27.564 32.6548L16.6698 41.9088C16.3637 41.6884 15.9843 41.566 15.5803 41.566L13.5606 33.7319H13.5729ZM27.4661 31.3328L14.4787 31.5164C14.393 31.2348 14.2706 30.9778 14.087 30.7574L20.2685 21.6748C20.4766 21.7482 20.6847 21.8094 20.9051 21.8094C21.1621 21.8094 21.3947 21.7482 21.615 21.6626L27.8578 30.5616C27.6742 30.7819 27.5396 31.039 27.4661 31.3205V31.3328ZM22.7901 19.4347L35.7653 12.7513C36.1203 13.1675 36.6344 13.4368 37.2342 13.4368C37.2954 13.4368 37.3444 13.4123 37.4056 13.4001L40.7351 22.7153C40.4658 22.8989 40.2332 23.1437 40.0863 23.4375L22.8636 19.7408C22.8636 19.7408 22.8391 19.6306 22.8269 19.5694C22.8269 19.5204 22.8269 19.4592 22.8146 19.4103L22.7901 19.4347ZM51.813 16.3623L43.0363 22.8254C42.6936 22.5439 42.2774 22.3603 41.8123 22.3603C41.7511 22.3603 41.7021 22.3848 41.6409 22.397L38.3114 13.0818C38.5685 12.9104 38.7766 12.6778 38.9357 12.4086L51.6783 15.6646C51.6783 15.9094 51.7395 16.1542 51.8252 16.3746L51.813 16.3623ZM43.7708 24.3433C43.7708 24.074 43.7218 23.8292 43.6239 23.5966L52.4005 17.1457C52.5841 17.3049 52.8045 17.415 53.0493 17.5007L52.4984 29.9251C52.1679 29.9863 51.8619 30.1209 51.6049 30.3413L43.6606 24.9798C43.7341 24.784 43.783 24.5759 43.783 24.3433H43.7708ZM70.9208 11.9556L55.375 14.82C55.069 14.1712 54.4325 13.7306 53.6736 13.7061L51.3233 3.03214L70.9208 11.9434V11.9556ZM52.7188 13.9264C52.7188 13.9264 52.6821 13.9754 52.6576 13.9876C52.376 14.159 52.1435 14.3793 51.9721 14.6608C51.9599 14.6853 51.9354 14.6853 51.9231 14.7098L39.1683 11.4415C39.1683 11.209 39.1071 10.9886 39.0336 10.7805L50.3318 3.09334L52.7065 13.9019L52.7188 13.9264ZM48.8507 2.94645L38.4583 10.0094C38.1156 9.71559 37.6871 9.53198 37.2097 9.53198C36.9037 9.53198 36.6222 9.61766 36.3651 9.74007C36.3651 9.74007 36.3529 9.74007 36.3407 9.75231C36.0958 9.87472 35.9 10.0461 35.7286 10.2419C35.7286 10.2419 35.7286 10.2419 35.7164 10.2419L25.7402 5.7251L48.8507 2.93421V2.94645ZM24.9078 6.43507L35.3124 11.1355C35.3124 11.1722 35.3124 11.209 35.3124 11.2334C35.3124 11.3191 35.2635 11.3926 35.2635 11.4783C35.2635 11.6007 35.3124 11.7231 35.3369 11.8455C35.3369 11.8455 35.3369 11.8577 35.3369 11.87L22.3495 18.5656C22.2148 18.4065 22.0435 18.2841 21.8598 18.1862L24.92 6.44731L24.9078 6.43507ZM23.8673 6.55748L20.9173 17.8924C20.9173 17.8924 20.9051 17.8924 20.8928 17.8924C19.8524 17.8924 19.0322 18.7003 18.9588 19.7163L6.62011 22.0298L23.8796 6.54523L23.8673 6.55748ZM19.1179 20.6833C19.2036 20.8547 19.3138 21.0138 19.4362 21.1484L13.2546 30.2311C13.0465 30.1576 12.8384 30.0964 12.6058 30.0964C12.2998 30.0964 12.0305 30.1821 11.7735 30.3045L5.73878 23.1927L19.1179 20.6833ZM5.1145 23.9638L11.039 30.9533C10.8187 31.2715 10.6596 31.6388 10.6596 32.055C10.6596 32.4711 10.8187 32.8261 11.0268 33.1444L2.87444 42.6432L5.1145 23.9638ZM3.57217 44.1488L13.7197 44.0019C13.9523 44.8098 14.6745 45.4096 15.5559 45.4096C15.8007 45.4096 16.0333 45.3606 16.2536 45.275L27.7476 61.1512L3.59665 44.1366L3.57217 44.1488ZM17.037 44.6996C17.0982 44.6384 17.1472 44.565 17.1961 44.4793C17.3675 44.21 17.4654 43.8918 17.4777 43.549C17.4777 43.5245 17.4777 43.5123 17.4777 43.4878C17.4777 43.194 17.4042 42.9125 17.2818 42.6677L28.1883 33.4014C28.3474 33.5116 28.5188 33.6095 28.7269 33.6707L28.1761 45.4953C28.1761 45.4953 28.1271 45.5198 28.1026 45.532C27.6742 45.6544 27.3192 45.8992 27.0622 46.2542C27.0132 46.2909 26.9765 46.3399 26.9398 46.3889C26.9275 46.4134 26.9153 46.4501 26.9153 46.4746C26.9153 46.4378 26.9153 46.4134 26.9398 46.3889L17.4654 43.5735C17.4654 43.9162 17.3552 44.2345 17.1839 44.5038L26.6582 47.3192C26.6582 47.3192 26.6705 47.2457 26.6827 47.2212C26.6827 47.2457 26.6582 47.2824 26.6582 47.3192C26.6582 47.3436 26.6582 47.3559 26.6582 47.3804C26.6582 47.4538 26.6949 47.5273 26.7072 47.6007C26.8051 48.4331 27.3927 49.0818 28.2006 49.2532C28.2006 49.2532 28.2006 49.2532 28.2128 49.2532L28.9228 61.1267L17.037 44.7119V44.6996ZM29.8653 60.5392L29.1798 49.2165C29.9755 48.9717 30.5753 48.2617 30.5753 47.3681C30.5753 47.209 30.5263 47.0621 30.4896 46.9152L38.8378 42.582L29.8653 60.5392ZM30.0489 46.0461C29.8163 45.7891 29.4981 45.6177 29.1553 45.5198L29.7062 33.6952C29.7062 33.6952 29.7184 33.6952 29.7306 33.6952C29.9387 33.6463 30.1346 33.5606 30.3182 33.4382C30.3427 33.4259 30.3672 33.4259 30.3916 33.4137L39.4131 41.211L30.0611 46.0706L30.0489 46.0461ZM31.0159 32.6548C31.1139 32.4467 31.1628 32.2141 31.1873 31.9693C31.1873 31.9203 31.224 31.8713 31.224 31.8224C31.224 31.6388 31.1873 31.4674 31.1383 31.296L40.4291 25.7387C40.6249 25.9346 40.8697 26.0692 41.1268 26.1672L39.7681 40.2195L31.0282 32.667L31.0159 32.6548ZM40.7106 40.4888L42.0938 26.2406C42.0938 26.2406 42.1183 26.2284 42.1305 26.2284C42.4488 26.1672 42.7303 26.0447 42.9751 25.8611C42.9996 25.8367 43.0486 25.8367 43.0731 25.8122L51.0051 31.1614C50.9316 31.3695 50.8704 31.602 50.8704 31.8346C50.8704 32.1162 50.9316 32.3732 51.0296 32.618L40.6984 40.5011L40.7106 40.4888ZM41.9714 40.7581L51.6661 33.3525C51.9966 33.6095 52.3883 33.7809 52.8289 33.7809C52.9636 33.7809 53.086 33.7319 53.2084 33.7075L56.697 41.2355L41.9592 40.7581H41.9714ZM54.102 33.3035C54.2366 33.1811 54.3468 33.0342 54.4447 32.8873C54.457 32.8628 54.4814 32.8506 54.4937 32.8261C54.4937 32.8139 54.5182 32.7894 54.5304 32.7772V32.7527C54.6039 32.618 54.6406 32.4834 54.6773 32.3365C54.6773 32.3243 54.6895 32.2998 54.6895 32.2875C54.7018 32.2386 54.7385 32.1896 54.7385 32.1406C54.7385 32.0672 54.7507 32.006 54.763 31.9325C54.763 32.006 54.763 32.0794 54.7385 32.1529L64.1884 31.1247C64.2618 31.345 64.3842 31.5286 64.5311 31.7L57.7375 41.26L54.0653 33.3402L54.102 33.3035ZM58.68 41.6395L65.3512 32.2386C65.5716 32.3243 65.7919 32.3732 66.0367 32.3732C66.0979 32.3732 66.1469 32.3487 66.2081 32.3365L70.9208 46.0339L58.68 41.6395ZM71.8878 45.8258L67.1384 32.006C67.2608 31.9203 67.3832 31.8346 67.4934 31.7245L77.947 37.3797L71.8878 45.8258ZM78.1673 36.3882L67.9218 30.8431C67.9218 30.8431 67.9218 30.7697 67.934 30.733C67.934 30.6718 67.9707 30.5983 67.9707 30.5371L78.7304 28.5296L78.1551 36.3882H78.1673Z" fill="white"/>
<path d="M320.703 57.7448H317.055V38.1778H308.764V41.8259H312.744V57.7448H308.764V61.3929H320.703V57.7448Z" fill="#FFCA63"/>
<path d="M322.341 56.4514C323.303 59.5689 326.42 61.7246 330.334 61.7246C335.043 61.7246 338.625 58.4745 338.625 54.0968C338.625 49.7191 335.342 46.4689 330.665 46.4689C329.671 46.4689 328.742 46.6348 327.846 46.9332L328.51 41.4943H337.265V37.8462H324.862L324.364 41.4943L323.369 50.4487L327.349 51.3109C328.244 50.5813 329.339 50.117 330.665 50.117C332.887 50.117 334.314 51.6758 334.314 54.0968C334.314 56.4183 332.655 58.0765 330.334 58.0765C328.178 58.0765 326.221 56.8162 325.757 54.76L322.341 56.4514Z" fill="#FFCA63"/>
<path d="M353.356 48.4588H355.91L355.578 52.7039C355.246 56.7168 354.915 57.4132 352.195 57.4132V61.3929C352.825 61.5919 353.256 61.7246 354.052 61.7246C357.037 61.7246 359.259 59.8342 359.757 52.7702L360.055 48.4588H364.565V57.7448V61.3929H370.867V57.7448H368.877V44.8107H353.356V48.4588Z" fill="#FFCA63"/>
<path d="M389.75 53.1018C389.717 48.1935 385.97 44.4791 381.061 44.4791C376.153 44.4791 372.041 48.1935 372.041 53.1018C372.041 58.0102 376.153 61.7246 381.061 61.7246C385.505 61.7246 387.363 59.8674 389.021 57.9438L385.638 55.7218C385.074 56.6836 383.88 58.0765 381.061 58.0765C378.674 58.0765 376.916 56.4514 376.452 54.2626H389.75V53.1018ZM381.061 48.1272C383.217 48.1272 384.676 49.5201 385.207 51.4436H376.584C377.181 49.5201 378.873 48.1272 381.061 48.1272Z" fill="#FFCA63"/>
<path d="M391.084 48.4588H396.722V61.3929H403.687V57.7448H401.034V44.8107H396.722H391.084V48.4588ZM401.034 48.4588H406.672V44.8107H401.034V48.4588Z" fill="#FFCA63"/>
<path d="M299.646 72.3189C306.497 72.9584 312.977 73.39 319.807 73.7221C344.605 74.9275 369.404 75.8564 394.337 77.3998C398.864 77.6801 412.277 78.5382 407.968 78.5763C375.015 78.8681 343.737 81.1239 310.05 80.7199C306.711 80.6799 297.388 81.0708 300.139 80.7161C301.905 80.4883 304.998 80.5711 307.046 80.5472C314.066 80.4653 320.94 80.2784 328.084 80.3092C346.23 80.3874 364.737 80.591 383.452 81.433C388.347 81.6532 393.565 81.9586 398.293 81.9566" stroke="#FFCA63" stroke-width="2.2509"/>
</svg>
