<svg width="526" height="97" viewBox="0 0 526 97" fill="none" xmlns="http://www.w3.org/2000/svg">
<path d="M4.502 94.9093C15.8122 94.7588 35.6966 93.6008 48.9182 93.0288C88.4344 91.319 131.295 90.3411 171.674 89.7734C238.605 88.8323 305.671 90.0491 372.616 90.252C396.989 90.3259 470.108 90.5475 445.735 90.4736" stroke="white" stroke-width="2.41149" stroke-linecap="round"/>
<path d="M9.01702 11.6262H1.31114V16.0875H3.74458V31.9048H9.01702V29.8769L18.5074 19.7376V27.4435V31.9048H26.2133V27.4435H23.7798V11.6262H18.5074V13.654L9.01702 23.8339V11.6262ZM43.9488 20.4677H48.9779V17.507C47.234 13.7352 43.3405 11.2206 38.8792 11.2206C32.8767 11.2206 27.8476 15.763 27.8476 21.7655C27.8476 27.7679 32.8767 32.3104 38.8792 32.3104C43.3405 32.3104 47.2745 29.8364 48.9779 26.0645L43.9894 24.645C43.0566 26.5512 41.1909 27.8491 38.8792 27.8491C35.4724 27.8491 33.12 25.1317 33.12 21.7655C33.12 18.3992 35.4724 15.6819 38.8792 15.6819C41.1504 15.6819 42.9754 16.9392 43.9488 18.8454V20.4677ZM50.5818 16.0875H57.4765V31.9048H65.9936V27.4435H62.749V11.6262H57.4765H50.5818V16.0875ZM62.749 16.0875H69.6437V11.6262H62.749V16.0875ZM75.7368 21.7655C75.7368 18.3992 78.0891 15.6819 81.4959 15.6819C84.8622 15.6819 87.255 18.3992 87.255 21.7655C87.255 25.1317 84.8622 27.8491 81.4959 27.8491C78.0891 27.8491 75.7368 25.1317 75.7368 21.7655ZM70.4644 21.7655C70.4644 27.7679 75.4935 32.3104 81.4959 32.3104C87.4984 32.3104 92.568 27.7679 92.5275 21.7655C92.4869 15.763 87.4984 11.2206 81.4959 11.2206C75.4935 11.2206 70.4644 15.763 70.4644 21.7655ZM109.398 11.0178C106.072 11.0178 103.557 12.3157 101.895 14.4246V11.6262H94.1887V16.0875H96.6222V42.0441H101.895V29.1063C103.557 31.2559 106.072 32.5131 109.398 32.5131C115.4 32.5131 119.131 27.8896 119.131 21.7655C119.131 15.6413 115.4 11.0178 109.398 11.0178ZM107.775 27.8896C104.369 27.8896 101.895 25.1723 101.895 21.7655V21.5221C102.016 18.237 104.45 15.6413 107.775 15.6413C111.182 15.6413 113.656 18.3587 113.656 21.7655C113.656 25.1723 111.182 27.8896 107.775 27.8896ZM128.471 11.6262H120.765V16.0875H123.198V31.9048H128.471V29.8769L137.961 19.7376V27.4435V31.9048H145.667V27.4435H143.234V11.6262H137.961V13.654L128.471 23.8339V11.6262ZM155.007 11.6262H147.301V16.0875H149.735V31.9048H155.007V29.8769L164.498 19.7376V27.4435V31.9048H172.203V27.4435H169.77V11.6262H164.498V13.654L155.007 23.8339V11.6262ZM204.118 20.4677H209.147V17.507C207.403 13.7352 203.51 11.2206 199.048 11.2206C193.046 11.2206 188.017 15.763 188.017 21.7655C188.017 27.7679 193.046 32.3104 199.048 32.3104C203.51 32.3104 207.444 29.8364 209.147 26.0645L204.159 24.645C203.226 26.5512 201.36 27.8491 199.048 27.8491C195.642 27.8491 193.289 25.1317 193.289 21.7655C193.289 18.3992 195.642 15.6819 199.048 15.6819C201.32 15.6819 203.145 16.9392 204.118 18.8454V20.4677ZM216.024 21.7655C216.024 18.3992 218.376 15.6819 221.783 15.6819C225.149 15.6819 227.542 18.3992 227.542 21.7655C227.542 25.1317 225.149 27.8491 221.783 27.8491C218.376 27.8491 216.024 25.1317 216.024 21.7655ZM210.751 21.7655C210.751 27.7679 215.78 32.3104 221.783 32.3104C227.785 32.3104 232.855 27.7679 232.814 21.7655C232.774 15.763 227.785 11.2206 221.783 11.2206C215.78 11.2206 210.751 15.763 210.751 21.7655ZM234.079 16.0875H240.974V31.9048H249.491V27.4435H246.247V11.6262H240.974H234.079V16.0875ZM246.247 16.0875H253.141V11.6262H246.247V16.0875ZM269.171 11.0178C265.845 11.0178 263.331 12.3157 261.668 14.4246V11.6262H253.962V16.0875H256.395V42.0441H261.668V29.1063C263.331 31.2559 265.845 32.5131 269.171 32.5131C275.173 32.5131 278.905 27.8896 278.905 21.7655C278.905 15.6413 275.173 11.0178 269.171 11.0178ZM267.549 27.8896C264.142 27.8896 261.668 25.1723 261.668 21.7655V21.5221C261.79 18.237 264.223 15.6413 267.549 15.6413C270.955 15.6413 273.429 18.3587 273.429 21.7655C273.429 25.1723 270.955 27.8896 267.549 27.8896ZM284.594 42.0441H285.324C291.935 42.0441 292.827 39.3673 294.53 34.3382L302.155 11.6262H296.477L291.245 27.2813L285.608 11.6262H279.93L287.636 31.9048H289.663L288.771 34.6221C288.001 36.9339 287.189 37.5828 284.999 37.5828H284.594V42.0441ZM304.938 16.0875H308.101L308.02 19.6565C307.858 21.9277 307.006 24.7262 305.911 27.4435H303.153V37.1772H308.426V31.9048H322.418V37.1772H327.691V27.4435H324.162V16.0875H324.203V11.6262H304.938V16.0875ZM318.89 27.4435H311.143C311.954 25.9834 312.887 23.5094 312.968 19.7376L313.049 16.0875H318.89V27.4435ZM345.49 11.6262V19.7376H336.406V11.6262H328.7V16.0875H331.133V31.9048H336.406V24.1989H345.49V27.4435V31.9048H353.196V27.4435H350.763V11.6262H345.49ZM362.506 11.6262H354.801V16.0875H357.234V31.9048H362.506V29.8769L371.997 19.7376V27.4435V31.9048H379.703V27.4435H377.269V11.6262H371.997V13.654L362.506 23.8339V11.6262ZM389.043 11.6262H381.337V16.0875H383.77V31.9048H389.043V23.3878H392.855L397.925 31.9048H403.806L397.317 21.3599L403.4 11.6262H397.519L393.099 18.9265H389.043V11.6262ZM409.462 21.7655C409.462 18.3992 411.815 15.6819 415.222 15.6819C418.588 15.6819 420.981 18.3992 420.981 21.7655C420.981 25.1317 418.588 27.8491 415.222 27.8491C411.815 27.8491 409.462 25.1317 409.462 21.7655ZM404.19 21.7655C404.19 27.7679 409.219 32.3104 415.222 32.3104C421.224 32.3104 426.294 27.7679 426.253 21.7655C426.213 15.763 421.224 11.2206 415.222 11.2206C409.219 11.2206 404.19 15.763 404.19 21.7655ZM427.914 16.0875H430.348V31.9048H442.515C446.409 31.9048 449.613 29.6741 449.613 25.7806C449.613 23.55 448.599 21.6844 445.962 20.8327C447.098 20.1432 447.787 18.5209 447.787 17.3042C447.787 13.5324 444.665 11.6262 440.893 11.6262H427.914V16.0875ZM441.988 23.3878C443.488 23.3878 444.34 24.1178 444.34 25.4156C444.34 26.7135 443.488 27.4435 441.988 27.4435H435.62V23.3878H441.988ZM440.447 16.0875C441.826 16.0875 442.515 16.8986 442.515 18.0748C442.515 19.2104 441.866 19.981 440.568 20.0621H435.62V16.0875H440.447ZM16.3173 67.4435H11.856V43.5147H1.71672V47.976H6.58358V67.4435H1.71672V71.9048H16.3173V67.4435ZM18.3205 65.8618C19.4966 69.6741 23.309 72.3104 28.0947 72.3104C33.8539 72.3104 38.2341 68.3358 38.2341 62.9822C38.2341 57.6286 34.2189 53.654 28.5003 53.654C27.2836 53.654 26.148 53.8568 25.053 54.2218L25.8641 47.5705H36.5712V43.1092H21.4028L20.7944 47.5705L19.5777 58.5209L24.4446 59.5754C25.5396 58.6831 26.878 58.1153 28.5003 58.1153C31.2177 58.1153 32.9616 60.0215 32.9616 62.9822C32.9616 65.8212 30.9338 67.8491 28.0947 67.8491C25.4585 67.8491 23.0657 66.3079 22.4979 63.7933L18.3205 65.8618ZM56.2487 56.0875H59.3716L58.9661 61.2788C58.5605 66.1862 58.1549 67.0379 54.8292 67.0379V71.9048C55.5998 72.1481 56.1271 72.3104 57.1004 72.3104C60.7506 72.3104 63.4679 69.9986 64.0763 61.3599L64.4413 56.0875H69.9571V67.4435V71.9048H77.663V67.4435H75.2295V51.6262H56.2487V56.0875ZM100.756 61.7655C100.716 55.763 96.1326 51.2206 90.1302 51.2206C84.1277 51.2206 79.0986 55.763 79.0986 61.7655C79.0986 67.7679 84.1277 72.3104 90.1302 72.3104C95.5648 72.3104 97.836 70.0392 99.8639 67.6868L95.7271 64.9695C95.0376 66.1457 93.5775 67.8491 90.1302 67.8491C87.2101 67.8491 85.0605 65.8618 84.4927 63.185H100.756V61.7655ZM90.1302 55.6819C92.7664 55.6819 94.5509 57.3853 95.1998 59.7376H84.655C85.385 57.3853 87.4534 55.6819 90.1302 55.6819ZM102.387 56.0875H109.282V71.9048H117.799V67.4435H114.554V51.6262H109.282H102.387V56.0875ZM114.554 56.0875H121.449V51.6262H114.554V56.0875ZM153.24 51.6262V59.7376H144.155V51.6262H136.449V56.0875H138.882V71.9048H144.155V64.1989H153.24V67.4435V71.9048H160.946V67.4435H158.512V51.6262H153.24ZM162.55 61.7655C162.55 67.7679 166.362 72.3104 172.365 72.3104C175.488 72.3104 177.84 71.0936 179.341 69.0252V71.9048H187.046V67.4435H184.613V51.6262H179.341V54.5869C177.84 52.4779 175.528 51.2206 172.365 51.2206C166.362 51.2206 162.55 55.763 162.55 61.7655ZM167.822 61.7655C167.822 58.3992 170.175 55.6819 173.581 55.6819C176.948 55.6819 179.341 58.3992 179.341 61.7655V62.0088C179.219 65.2534 176.867 67.8491 173.581 67.8491C170.175 67.8491 167.822 65.1317 167.822 61.7655ZM198.141 68.2546C195.91 68.2546 194.166 66.9162 193.315 64.7667L188.853 66.0645C190.557 69.8364 193.923 72.3104 198.79 72.3104C203.9 72.3104 207.794 69.9175 207.794 65.7806C207.794 63.9556 206.536 61.7655 203.738 61.3194C206.05 60.8327 206.78 58.9265 206.78 57.3042C206.78 53.5324 202.846 51.2206 198.263 51.2206C194.004 51.2206 191.084 53.2485 189.502 56.2903V59.7376H193.964V57.3447C194.775 56.2091 196.113 55.2763 197.817 55.2763C200.372 55.2763 201.507 56.3308 201.507 57.7098C201.507 58.8454 200.047 60.0621 197.857 60.0621H196.113V63.3878H198.547C201.021 63.3878 202.521 64.1989 202.521 65.6184C202.521 67.4435 200.696 68.2546 198.141 68.2546ZM210.395 61.7655C210.395 67.7679 214.207 72.3104 220.21 72.3104C223.332 72.3104 225.685 71.0936 227.185 69.0252V71.9048H234.891V67.4435H232.458V51.6262H227.185V54.5869C225.685 52.4779 223.373 51.2206 220.21 51.2206C214.207 51.2206 210.395 55.763 210.395 61.7655ZM215.667 61.7655C215.667 58.3992 218.019 55.6819 221.426 55.6819C224.792 55.6819 227.185 58.3992 227.185 61.7655V62.0088C227.064 65.2534 224.711 67.8491 221.426 67.8491C218.019 67.8491 215.667 65.1317 215.667 61.7655ZM238.28 56.0875H241.443L241.362 59.6565C241.2 61.9277 240.348 64.7262 239.253 67.4435H236.495V77.1772H241.768V71.9048H255.76V77.1772H261.033V67.4435H257.504V56.0875H257.545V51.6262H238.28V56.0875ZM252.232 67.4435H244.485C245.296 65.9834 246.229 63.5094 246.31 59.7376L246.391 56.0875H252.232V67.4435Z" fill="white"/>
</svg>
