<svg width="377" height="50" viewBox="0 0 377 50" fill="none" xmlns="http://www.w3.org/2000/svg">
<path d="M4.64075 45.9697C14.0543 45.8652 30.6108 44.7509 41.6181 44.2161C74.5164 42.6176 110.192 41.797 143.801 41.392C199.507 40.7207 255.311 42.2975 311.022 42.8177C331.305 43.0071 392.153 43.5754 371.87 43.386" stroke="#FFCA63" stroke-width="2.41149" stroke-linecap="round"/>
<path d="M18.1018 10.7214V18.8328H9.01702V10.7214H1.31114V15.1827H3.74458V31H9.01702V23.2941H18.1018V26.5387V31H25.8077V26.5387H23.3743V10.7214H18.1018ZM27.4119 20.8607C27.4119 26.8632 31.2243 31.4056 37.2268 31.4056C40.3497 31.4056 42.702 30.1889 44.2026 28.1204V31H51.9085V26.5387H49.4751V10.7214H44.2026V13.6821C42.702 11.5731 40.3902 10.3158 37.2268 10.3158C31.2243 10.3158 27.4119 14.8582 27.4119 20.8607ZM32.6844 20.8607C32.6844 17.4944 35.0367 14.7771 38.4435 14.7771C41.8097 14.7771 44.2026 17.4944 44.2026 20.8607V21.104C44.0809 24.3486 41.7286 26.9443 38.4435 26.9443C35.0367 26.9443 32.6844 24.2269 32.6844 20.8607ZM55.9461 31H83.9306V26.5387H81.4972V10.7214H76.2248V26.5387H71.3579V10.7214H66.0854V26.5387H61.2186V10.7214H53.5127V15.1827H55.9461V31ZM93.2604 10.7214H85.5545V15.1827H87.9879V31H93.2604V28.9721L102.751 18.8328V26.5387V31H110.457V26.5387H108.023V10.7214H102.751V12.7493L93.2604 22.9291V10.7214ZM148.333 10.7214H126.27V15.1827H128.704V31H133.976V15.1827H143.061V26.5387V31H150.767V26.5387H148.333V10.7214ZM167.58 10.113C164.254 10.113 161.74 11.4109 160.077 13.5198V10.7214H152.371V15.1827H154.804V41.1393H160.077V28.2016C161.74 30.3511 164.254 31.6084 167.58 31.6084C173.582 31.6084 177.314 26.9848 177.314 20.8607C177.314 14.7366 173.582 10.113 167.58 10.113ZM165.958 26.9848C162.551 26.9848 160.077 24.2675 160.077 20.8607V20.6174C160.198 17.3322 162.632 14.7366 165.958 14.7366C169.364 14.7366 171.838 17.4539 171.838 20.8607C171.838 24.2675 169.364 26.9848 165.958 26.9848ZM184.219 20.8607C184.219 17.4944 186.572 14.7771 189.979 14.7771C193.345 14.7771 195.738 17.4944 195.738 20.8607C195.738 24.2269 193.345 26.9443 189.979 26.9443C186.572 26.9443 184.219 24.2269 184.219 20.8607ZM178.947 20.8607C178.947 26.8632 183.976 31.4056 189.979 31.4056C195.981 31.4056 201.051 26.8632 201.01 20.8607C200.97 14.8582 195.981 10.3158 189.979 10.3158C183.976 10.3158 178.947 14.8582 178.947 20.8607ZM202.671 15.1827H205.51V31H210.783V15.1827H217.678V20.4146H222.544V10.7214H202.671V15.1827ZM240.575 10.113C237.249 10.113 234.735 11.4109 233.072 13.5198V10.7214H225.366V15.1827H227.799V41.1393H233.072V28.2016C234.735 30.3511 237.249 31.6084 240.575 31.6084C246.577 31.6084 250.309 26.9848 250.309 20.8607C250.309 14.7366 246.577 10.113 240.575 10.113ZM238.953 26.9848C235.546 26.9848 233.072 24.2675 233.072 20.8607V20.6174C233.194 17.3322 235.627 14.7366 238.953 14.7366C242.359 14.7366 244.833 17.4539 244.833 20.8607C244.833 24.2675 242.359 26.9848 238.953 26.9848ZM251.942 20.8607C251.942 26.8632 255.754 31.4056 261.757 31.4056C264.88 31.4056 267.232 30.1889 268.733 28.1204V31H276.439V26.5387H274.005V10.7214H268.733V13.6821C267.232 11.5731 264.92 10.3158 261.757 10.3158C255.754 10.3158 251.942 14.8582 251.942 20.8607ZM257.214 20.8607C257.214 17.4944 259.567 14.7771 262.974 14.7771C266.34 14.7771 268.733 17.4944 268.733 20.8607V21.104C268.611 24.3486 266.259 26.9443 262.974 26.9443C259.567 26.9443 257.214 24.2269 257.214 20.8607ZM285.749 10.7214H278.043V15.1827H280.476V31H285.749V18.4273H286.154L290.656 31H295.766L300.268 18.4273H300.674V26.5387V31H308.38V26.5387H305.946V10.7214H300.674H298.24L293.211 25.322L288.182 10.7214H285.749ZM317.711 10.7214H310.005V15.1827H312.439V31H317.711V18.4273H318.117L322.619 31H327.729L332.231 18.4273H332.636V26.5387V31H340.342V26.5387H337.909V10.7214H332.636H330.203L325.174 25.322L320.145 10.7214H317.711ZM344.442 26.5387V31H352.959C357.826 31 361.476 28.161 361.476 23.6997C361.476 19.2384 357.826 16.3994 352.959 16.3994H349.714V10.7214H344.442V26.5387ZM363.504 31H371.21V26.5387H368.776V10.7214H363.504V31ZM349.714 20.8607H352.959C354.906 20.8607 356.204 21.753 356.204 23.6997C356.204 25.6464 354.906 26.5387 352.959 26.5387H349.714V20.8607Z" fill="#653C7E"/>
</svg>
