<svg width="179" height="65" viewBox="0 0 179 65" fill="none" xmlns="http://www.w3.org/2000/svg">
<path d="M14.9323 1.02H2.01233V8.5H6.09233V35.02H14.9323V13.94H15.6123L23.1603 35.02H31.7283L39.2763 13.94H39.9563V27.54V35.02H52.8763V27.54H48.7963V1.02H39.9563H35.8763L27.4443 25.5L19.0123 1.02H14.9323Z" fill="white"/>
<path d="M91.9142 18.02C91.8462 7.956 84.1622 0.339998 74.0982 0.339998C64.0342 0.339998 55.6022 7.956 55.6022 18.02C55.6022 28.084 64.0342 35.7 74.0982 35.7C83.2102 35.7 87.0182 31.892 90.4182 27.948L83.4822 23.392C82.3262 25.364 79.8782 28.22 74.0982 28.22C69.2022 28.22 65.5982 24.888 64.6462 20.4H91.9142V18.02ZM74.0982 7.82C78.5182 7.82 81.5102 10.676 82.5982 14.62H64.9182C66.1422 10.676 69.6102 7.82 74.0982 7.82Z" fill="white"/>
<path d="M120.149 0C114.573 0 110.357 2.176 107.569 5.712V1.02H94.649V8.5H98.729V52.02H107.569V30.328C110.357 33.932 114.573 36.04 120.149 36.04C130.213 36.04 136.469 28.288 136.469 18.02C136.469 7.752 130.213 0 120.149 0ZM117.429 28.288C111.717 28.288 107.569 23.732 107.569 18.02V17.612C107.773 12.104 111.853 7.752 117.429 7.752C123.141 7.752 127.289 12.308 127.289 18.02C127.289 23.732 123.141 28.288 117.429 28.288Z" fill="white"/>
<path d="M174.228 1.02H165.388V13.804C163.28 15.776 160.832 16.728 158.316 16.728C153.692 16.728 151.584 14.824 151.584 10.472V1.02H138.528V8.5H142.744V10.472C142.676 21.488 148.116 24.48 155.12 24.48C159.336 24.48 163.008 23.392 165.388 21.76V27.472V34.952H178.308V27.472H174.228V1.02Z" fill="white"/>
<path fill-rule="evenodd" clip-rule="evenodd" d="M58.734 57.032C60.3325 57.0378 61.917 57.0436 63.4821 57.0436H175.688C175.688 57.0454 175.688 57.0471 175.688 57.0488C175.688 57.6553 175.688 58.2615 175.688 58.7948C175.688 59.7514 175.688 60.4733 175.688 60.5408C175.688 60.5442 175.687 60.5459 175.687 60.5459H121.212C131.956 60.823 142.698 61.0205 153.453 61.0205H178.307L178.308 64.5228H153.453C135.425 64.5228 117.442 63.9698 99.4888 63.4178L99.4727 63.4173C81.5055 62.8648 63.5687 62.3134 45.5944 62.3134C42.1125 62.3134 38.5939 62.3509 35.0592 62.3886C27.9311 62.4646 20.7372 62.5412 13.6447 62.3125C13.4275 62.3055 13.1449 62.2918 12.9009 62.2406C12.832 62.2261 12.7085 62.1972 12.5664 62.1405L12.5641 62.1396C12.4766 62.1047 12.1009 61.9549 11.8016 61.563C11.6217 61.3275 11.4544 60.9821 11.4402 60.5499C11.4402 60.5486 11.4401 60.5473 11.4401 60.5459H0V57.0436H48.8889C52.1972 57.008 55.4943 57.0201 58.734 57.032Z" fill="#FFCA63"/>
</svg>
