<svg width="86" height="86" viewBox="0 0 86 86" fill="none" xmlns="http://www.w3.org/2000/svg">
<path fill-rule="evenodd" clip-rule="evenodd" d="M53.8655 2.004C52.4885 1.59364 51.0395 2.37727 50.6292 3.75428L44.5598 24.1205L42.3121 2.98883C42.1601 1.56004 40.8786 0.52497 39.4498 0.676949L37.1937 0.916937C35.7649 1.06892 34.7298 2.35039 34.8818 3.77919L37.0999 24.6327L27.1238 6.18646C26.4403 4.9226 24.8616 4.45214 23.5978 5.13566L21.602 6.21501C20.3382 6.89853 19.8677 8.4772 20.5512 9.74107L30.4817 28.103L14.3429 14.8624C13.232 13.951 11.5927 14.1127 10.6813 15.2236L9.24222 16.9777C8.33086 18.0886 8.49258 19.7279 9.60343 20.6392L26.1058 34.1781L5.64852 28.0816C4.27151 27.6712 2.82255 28.4549 2.41219 29.8319L1.76419 32.0063C1.35383 33.3833 2.13745 34.8323 3.51446 35.2426L23.8835 41.3128L2.74724 43.561C1.31844 43.713 0.283376 44.9945 0.435354 46.4233L0.675342 48.6795C0.827321 50.1083 2.10879 51.1433 3.53759 50.9913L24.3945 48.7728L5.94665 58.7498C4.68278 59.4333 4.21232 61.012 4.89585 62.2759L5.97519 64.2716C6.65871 65.5355 8.23739 66.0059 9.50125 65.3224L27.8621 55.3925L14.6218 71.531C13.7104 72.6419 13.8721 74.2812 14.983 75.1925L16.7371 76.6316C17.848 77.543 19.4873 77.3813 20.3987 76.2704L33.936 59.7699L27.8404 80.2243C27.43 81.6013 28.2136 83.0503 29.5906 83.4606L31.7651 84.1086C33.1421 84.519 34.591 83.7354 35.0014 82.3584L41.073 61.9846L43.3217 83.125C43.4736 84.5538 44.7551 85.5889 46.1839 85.4369L48.4401 85.1969C49.8689 85.0449 50.904 83.7635 50.752 82.3347L48.534 61.4823L58.5096 79.9277C59.1931 81.1915 60.7718 81.662 62.0356 80.9785L64.0314 79.8991C65.2952 79.2156 65.7657 77.6369 65.0822 76.3731L55.1484 58.0051L71.2925 71.25C72.4034 72.1614 74.0427 71.9997 74.9541 70.8888L76.3932 69.1347C77.3045 68.0238 77.1428 66.3845 76.032 65.4732L59.5322 51.9365L79.9845 58.0314C81.3615 58.4418 82.8105 57.6582 83.2208 56.2812L83.8688 54.1068C84.2792 52.7297 83.4956 51.2808 82.1186 50.8704L61.7475 44.7997L82.8834 42.5515C84.3122 42.3995 85.3473 41.118 85.1953 39.6892L84.9553 37.433C84.8034 36.0042 83.5219 34.9692 82.0931 35.1211L61.2441 37.3388L79.6878 27.3641C80.9517 26.6805 81.4222 25.1019 80.7386 23.838L79.6593 21.8422C78.9758 20.5784 77.3971 20.1079 76.1332 20.7914L57.7643 30.7258L71.0094 14.5813C71.9208 13.4705 71.7591 11.8312 70.6482 10.9198L68.8941 9.48068C67.7833 8.56932 66.1439 8.73104 65.2326 9.84189L51.6944 26.3435L57.7902 5.88833C58.2006 4.51132 57.4169 3.06237 56.0399 2.652L53.8655 2.004Z" fill="#FFCA63"/>
</svg>
