<svg width="403" height="33" viewBox="0 0 403 33" fill="none" xmlns="http://www.w3.org/2000/svg">
<path d="M3.55967 17.151C6.39576 13.7484 14.0083 11.2329 18.9854 9.72465C24.7994 7.96274 31.7985 7.23478 38.0932 7.20545C42.7986 7.18353 47.3383 6.82108 51.2749 8.99863C55.7534 11.4759 57.0306 17.0853 59.1047 20.5694C60.7506 23.3342 65.1154 25.4449 68.3345 27.6731C73.2276 31.0598 82.7134 27.1562 87.5824 25.7608C105.468 20.6347 114.948 11.0877 132.77 5.90096C139.381 3.97713 149.147 2.03304 154.817 5.95811C159.845 9.43769 167.837 23.896 173.606 26.9978C176.612 28.6144 182.125 27.8534 185.548 27.8375C195.568 27.7908 205.8 21.2845 214.136 18.0476C225.587 13.6008 240.997 6.15522 255.07 7.40077C262.485 8.0571 269.392 14.7037 273.19 18.7957C277.276 23.1968 283.835 24.3268 291.095 23.1888C297.199 22.2322 302.586 18.6002 308.356 16.9051C312.355 15.7301 317.133 15.0945 320.92 13.649C324.855 12.1466 331.622 11.0411 336.139 11.02C342.354 10.9911 345.515 15.4402 349.347 18.4728C352.149 20.6902 359.551 26.2599 364.204 26.4295C370.558 26.6611 376.865 26.2304 382.305 23.7551C387.859 21.2277 394.484 19.4695 399.561 16.4801" stroke="#FFCA63" stroke-width="6" stroke-linecap="round"/>
</svg>
