<svg width="1440" height="750" viewBox="0 0 1440 750" fill="none" xmlns="http://www.w3.org/2000/svg">
<g clip-path="url(#clip0_1_1042)">
<rect width="1440" height="750" fill="#653C7E"/>
<path d="M-318.896 279.965C-318.896 283.311 -315.053 274.356 -313.039 271.612C-278.341 224.363 -231.089 182.888 -188.183 142.807C-81.8971 43.5197 30.9349 -46.4936 153.86 -126.233C180.945 -143.802 207.17 -168.379 238.793 -178.399C243.683 -179.949 239.449 -168.305 237.56 -163.746C214.698 -108.577 175.818 -58.7287 142.916 -8.85734C-13.5531 228.312 -161.02 472.453 -290.225 724.115C-364.291 868.377 -434.62 1014.81 -495.852 1164.46C-522.193 1228.83 -543.813 1295.37 -571.999 1359.05C-577.153 1370.7 -578.223 1376.29 -590.187 1377.23C-594.318 1377.55 -605.184 1379.7 -599.282 1375.03C-577.795 1358 -558.257 1337.28 -539.629 1317.73C-425.934 1198.41 -316.575 1075.1 -206.988 952.418C5.48932 714.542 210.586 470.133 430.855 238.642C585.081 76.5579 748.731 -76.8015 917.33 -225.291C984.48 -284.432 1054.22 -340.035 1125.11 -394.979C1126.39 -395.967 1158.19 -424.085 1159.95 -422.968C1160.49 -422.628 1159.43 -421.833 1159.03 -421.356C1153.46 -414.772 1147.29 -408.675 1141.45 -402.306C1111.1 -369.174 1081.24 -335.629 1051.59 -301.929C828.932 -48.848 618.823 216.032 422.531 488.046C329.925 616.375 239.417 747.747 167.887 888.088C157.151 909.152 145.968 929.924 136.134 951.392C133.891 956.287 120.669 980.304 136.75 966.632C196.286 916.016 245.107 850.862 296.288 793.133C436.867 634.57 582.252 479.989 736.212 333.011C868.941 206.3 1005.02 79.1421 1157.79 -26.002C1180.33 -41.5122 1202.46 -57.9284 1225.62 -72.6004C1257.37 -92.7259 1221.8 -47.8247 1217.45 -42.2675C1160.65 30.1972 1095.21 96.7771 1034.17 165.96C928.832 285.352 826.522 407.324 727.58 531.567C631.788 651.853 539.171 777.006 462.3 909.19C450.692 929.15 440.754 949.82 430.546 970.442C429.569 972.416 416.499 1002.15 419.14 1001.36C423.417 1000.08 433.416 991.891 434.246 991.25C467.15 965.835 498.197 938.094 529.198 910.655C704.192 755.77 878.202 600.119 1056.37 448.481C1236.76 294.942 1422.21 147.917 1609.74 2.42592C1628.22 -11.9147 1647.01 -24.9834 1666.46 -38.018C1681.8 -48.2926 1698.53 -63.5988 1716.41 -69.6697C1721.05 -71.2475 1719.95 -69.0891 1717.79 -65.5667C1705.84 -46.0847 1687.72 -28.0216 1672.94 -10.7623C1568.41 111.305 1464.35 233.474 1363.73 358.508C1140.92 635.359 918.198 914.985 716.019 1205.92C690.964 1241.98 678.041 1261.22 655.287 1296.48C640.911 1318.76 627.913 1344.01 610.277 1364.33C598.494 1377.91 584.801 1377.23 567.888 1377.23C566.735 1377.23 541.459 1376.93 541.529 1376.64C541.874 1375.22 543.388 1374.31 544.458 1373.27C554.251 1363.73 564.562 1354.67 574.362 1345.13C618.651 1302.03 661.527 1257.62 705.229 1213.98C932.577 986.966 1174.13 774.774 1433.86 581.535C1526.94 512.285 1620.68 441.901 1718.56 378.73C1732.72 369.598 1772.15 340.107 1762.49 353.526C1741.4 382.841 1716.28 410.027 1693.28 437.93C1628.53 516.493 1569.4 597.948 1511.09 680.887C1413.18 820.148 1322.61 965.578 1257.06 1121.37" stroke="#5B3275" stroke-width="155.202" stroke-linecap="round"/>
</g>
<defs>
<clipPath id="clip0_1_1042">
<rect width="1440" height="750" fill="white"/>
</clipPath>
</defs>
</svg>
